<svg viewBox="-218.1818181818181818181818182 -109.0909090909090909090909091 1876.363636363636363636363636 1949.090909090909090909090909" xmlns="http://www.w3.org/2000/svg" role="img" aria-label="Vano 4"><title>Vista interior</title><text x="0" y="-54.54545454545454545454545455" font-family="IBM Plex Sans" font-size="54.54545454545454545454545455" fill="#075F5A">Vista interior</text><line x1="0" y1="1760.000000000000000000000000" x2="1200" y2="1760.000000000000000000000000" stroke="#075F5A" stroke-width="2.133333333333333333333333333"/><line x1="0" y1="1600" x2="0" y2="1777.777777777777777777777778" stroke="#075F5A" stroke-width="1.333333333333333333333333333"/><line x1="-10.66666666666666666666666667" y1="1770.666666666666666666666667" x2="10.66666666666666666666666667" y2="1749.333333333333333333333333" stroke="#075F5A" stroke-width="2.666666666666666666666666666"/><line x1="1200" y1="1600" x2="1200" y2="1777.777777777777777777777778" stroke="#075F5A" stroke-width="1.333333333333333333333333333"/><line x1="1189.333333333333333333333333" y1="1770.666666666666666666666667" x2="1210.666666666666666666666667" y2="1749.333333333333333333333333" stroke="#075F5A" stroke-width="2.666666666666666666666666666"/><text x="600" y="1733.333333333333333333333333" text-anchor="middle" transform="" font-family="IBM Plex Mono" font-size="53.33333333333333333333333333" fill="#075F5A">1 200 mm</text><line x1="1360.000000000000000000000000" y1="0" x2="1360.000000000000000000000000" y2="1600" stroke="#075F5A" stroke-width="2.133333333333333333333333333"/><line x1="1200" y1="0" x2="1377.777777777777777777777778" y2="0" stroke="#075F5A" stroke-width="1.333333333333333333333333333"/><line x1="1349.333333333333333333333333" y1="10.66666666666666666666666667" x2="1370.666666666666666666666667" y2="-10.66666666666666666666666667" stroke="#075F5A" stroke-width="2.666666666666666666666666666"/><line x1="1200" y1="1600" x2="1377.777777777777777777777778" y2="1600" stroke="#075F5A" stroke-width="1.333333333333333333333333333"/><line x1="1349.333333333333333333333333" y1="1610.666666666666666666666667" x2="1370.666666666666666666666667" y2="1589.333333333333333333333333" stroke="#075F5A" stroke-width="2.666666666666666666666666666"/><text x="1333.333333333333333333333333" y="800" text-anchor="middle" transform=" rotate(-90 1333.333333333333333333333333 800)" font-family="IBM Plex Mono" font-size="53.33333333333333333333333333" fill="#075F5A">1 600 mm</text><g transform="translate(0 0)"><path d="M0,1600 L1200,1600 L1200,600 L1199.98,595 L1199.92,590 L1199.81,585 L1199.67,580 L1199.48,575.01 L1199.25,570.01 L1198.98,565.02 L1198.67,560.03 L1198.31,555.04 L1197.92,550.06 L1197.48,545.08 L1197,540.1 L1196.48,535.13 L1195.92,530.16 L1195.32,525.2 L1194.67,520.24 L1193.99,515.29 L1193.26,510.34 L1192.5,505.4 L1191.69,500.46 L1190.84,495.54 L1189.95,490.62 L1189.01,485.71 L1188.04,480.8 L1187.03,475.91 L1185.97,471.02 L1184.88,466.14 L1183.74,461.27 L1182.57,456.41 L1181.35,451.56 L1180.09,446.72 L1178.79,441.89 L1177.46,437.08 L1176.08,432.27 L1174.66,427.47 L1173.2,422.69 L1171.71,417.92 L1170.17,413.16 L1168.59,408.42 L1166.98,403.69 L1165.32,398.97 L1163.63,394.27 L1161.89,389.58 L1160.12,384.9 L1158.31,380.24 L1156.46,375.6 L1154.57,370.97 L1152.64,366.35 L1150.67,361.76 L1148.67,357.18 L1146.63,352.61 L1144.55,348.07 L1142.43,343.54 L1140.27,339.03 L1138.08,334.53 L1135.85,330.06 L1133.58,325.6 L1131.27,321.17 L1128.93,316.75 L1126.55,312.35 L1124.14,307.97 L1121.69,303.62 L1119.2,299.28 L1116.67,294.96 L1114.11,290.67 L1111.52,286.39 L1108.89,282.14 L1106.22,277.91 L1103.52,273.71 L1100.78,269.52 L1098.01,265.36 L1095.21,261.22 L1092.37,257.11 L1089.49,253.02 L1086.58,248.95 L1083.64,244.91 L1080.67,240.89 L1077.66,236.9 L1074.61,232.93 L1071.54,228.99 L1068.43,225.07 L1065.29,221.18 L1062.12,217.31 L1058.91,213.48 L1055.67,209.67 L1052.41,205.88 L1049.11,202.13 L1045.78,198.4 L1042.41,194.7 L1039.02,191.02 L1035.6,187.38 L1032.14,183.76 L1028.66,180.18 L1025.15,176.62 L1021.6,173.09 L1018.03,169.59 L1014.43,166.13 L1010.8,162.69 L1007.14,159.28 L1003.46,155.9 L999.74,152.56 L996,149.24 L992.23,145.96 L988.43,142.7 L984.61,139.48 L980.76,136.29 L976.88,133.14 L972.98,130.01 L969.05,126.92 L965.09,123.86 L961.11,120.84 L957.11,117.84 L953.08,114.88 L949.02,111.96 L944.94,109.07 L940.84,106.21 L936.71,103.39 L932.56,100.6 L928.39,97.84 L924.19,95.13 L919.97,92.44 L915.73,89.79 L911.47,87.18 L907.19,84.6 L902.88,82.06 L898.56,79.55 L894.21,77.08 L889.84,74.65 L885.45,72.25 L881.05,69.89 L876.62,67.57 L872.17,65.28 L867.71,63.03 L863.22,60.82 L858.72,58.65 L854.2,56.51 L849.66,54.41 L845.11,52.35 L840.54,50.32 L835.95,48.34 L831.34,46.39 L826.72,44.48 L822.08,42.61 L817.43,40.78 L812.76,38.99 L808.08,37.24 L803.38,35.52 L798.67,33.85 L793.95,32.21 L789.21,30.61 L784.46,29.06 L779.69,27.54 L774.92,26.06 L770.13,24.63 L765.33,23.23 L760.52,21.87 L755.69,20.55 L750.86,19.28 L746.02,18.04 L741.16,16.84 L736.3,15.69 L731.42,14.57 L726.54,13.5 L721.65,12.46 L716.75,11.47 L711.84,10.52 L706.92,9.6 L702,8.73 L697.07,7.9 L692.13,7.12 L687.19,6.37 L682.24,5.66 L677.28,5 L672.32,4.37 L667.36,3.79 L662.39,3.25 L657.41,2.75 L652.43,2.3 L647.45,1.88 L642.46,1.5 L637.47,1.17 L632.48,0.88 L627.49,0.63 L622.49,0.42 L617.5,0.26 L612.5,0.13 L607.5,0.05 L602.5,0.01 L597.5,0.01 L592.5,0.05 L587.5,0.13 L582.5,0.26 L577.51,0.42 L572.51,0.63 L567.52,0.88 L562.53,1.17 L557.54,1.5 L552.55,1.88 L547.57,2.3 L542.59,2.75 L537.61,3.25 L532.64,3.79 L527.68,4.37 L522.72,5 L517.76,5.66 L512.81,6.37 L507.87,7.12 L502.93,7.9 L498,8.73 L493.08,9.6 L488.16,10.52 L483.25,11.47 L478.35,12.46 L473.46,13.5 L468.58,14.57 L463.7,15.69 L458.84,16.84 L453.98,18.04 L449.14,19.28 L444.31,20.55 L439.48,21.87 L434.67,23.23 L429.87,24.63 L425.08,26.06 L420.31,27.54 L415.54,29.06 L410.79,30.61 L406.05,32.21 L401.33,33.85 L396.62,35.52 L391.92,37.24 L387.24,38.99 L382.57,40.78 L377.92,42.61 L373.28,44.48 L368.66,46.39 L364.05,48.34 L359.46,50.32 L354.89,52.35 L350.34,54.41 L345.8,56.51 L341.28,58.65 L336.78,60.82 L332.29,63.03 L327.83,65.28 L323.38,67.57 L318.95,69.89 L314.55,72.25 L310.16,74.65 L305.79,77.08 L301.44,79.55 L297.12,82.06 L292.81,84.6 L288.53,87.18 L284.27,89.79 L280.03,92.44 L275.81,95.13 L271.61,97.84 L267.44,100.6 L263.29,103.39 L259.16,106.21 L255.06,109.07 L250.98,111.96 L246.92,114.88 L242.89,117.84 L238.89,120.84 L234.91,123.86 L230.95,126.92 L227.02,130.01 L223.12,133.14 L219.24,136.29 L215.39,139.48 L211.57,142.7 L207.77,145.96 L204,149.24 L200.26,152.56 L196.54,155.9 L192.86,159.28 L189.2,162.69 L185.57,166.13 L181.97,169.59 L178.4,173.09 L174.85,176.62 L171.34,180.18 L167.86,183.76 L164.4,187.38 L160.98,191.02 L157.59,194.7 L154.22,198.4 L150.89,202.13 L147.59,205.88 L144.33,209.67 L141.09,213.48 L137.88,217.31 L134.71,221.18 L131.57,225.07 L128.46,228.99 L125.39,232.93 L122.34,236.9 L119.33,240.89 L116.36,244.91 L113.42,248.95 L110.51,253.02 L107.63,257.11 L104.79,261.22 L101.99,265.36 L99.22,269.52 L96.48,273.71 L93.78,277.91 L91.11,282.14 L88.48,286.39 L85.89,290.67 L83.33,294.96 L80.8,299.28 L78.31,303.62 L75.86,307.97 L73.45,312.35 L71.07,316.75 L68.73,321.17 L66.42,325.6 L64.15,330.06 L61.92,334.53 L59.73,339.03 L57.57,343.54 L55.45,348.07 L53.37,352.61 L51.33,357.18 L49.33,361.76 L47.36,366.35 L45.43,370.97 L43.54,375.6 L41.69,380.24 L39.88,384.9 L38.11,389.58 L36.37,394.27 L34.68,398.97 L33.02,403.69 L31.41,408.42 L29.83,413.16 L28.29,417.92 L26.8,422.69 L25.34,427.47 L23.92,432.27 L22.54,437.08 L21.21,441.89 L19.91,446.72 L18.65,451.56 L17.43,456.41 L16.26,461.27 L15.12,466.14 L14.03,471.02 L12.97,475.91 L11.96,480.8 L10.99,485.71 L10.05,490.62 L9.16,495.54 L8.31,500.46 L7.5,505.4 L6.74,510.34 L6.01,515.29 L5.33,520.24 L4.68,525.2 L4.08,530.16 L3.52,535.13 L3,540.1 L2.52,545.08 L2.08,550.06 L1.69,555.04 L1.33,560.03 L1.02,565.02 L0.75,570.01 L0.52,575.01 L0.33,580 L0.19,585 L0.08,590 L0.02,595 L0,600 Z" fill="none" stroke="#075F5A" stroke-width="8"/></g><path data-contour-glass="true" transform="translate(0 0)" d="M60,1540 L1140,1540 L1140,600 L1139.98,595.01 L1139.91,590.02 L1139.79,585.03 L1139.63,580.05 L1139.42,575.06 L1139.17,570.08 L1138.87,565.1 L1138.53,560.12 L1138.13,555.15 L1137.7,550.18 L1137.21,545.21 L1136.68,540.25 L1136.11,535.29 L1135.49,530.34 L1134.82,525.4 L1134.11,520.46 L1133.35,515.53 L1132.55,510.6 L1131.7,505.68 L1130.81,500.78 L1129.87,495.87 L1128.88,490.98 L1127.85,486.1 L1126.78,481.23 L1125.66,476.37 L1124.49,471.51 L1123.28,466.67 L1122.03,461.84 L1120.73,457.03 L1119.39,452.22 L1118,447.43 L1116.57,442.65 L1115.09,437.88 L1113.57,433.13 L1112.01,428.39 L1110.4,423.67 L1108.75,418.96 L1107.05,414.27 L1105.32,409.59 L1103.54,404.93 L1101.71,400.29 L1099.84,395.66 L1097.93,391.05 L1095.98,386.46 L1093.99,381.88 L1091.95,377.33 L1089.87,372.79 L1087.75,368.27 L1085.59,363.78 L1083.39,359.3 L1081.14,354.85 L1078.86,350.41 L1076.53,346 L1074.16,341.6 L1071.76,337.23 L1069.31,332.89 L1066.82,328.56 L1064.29,324.26 L1061.72,319.98 L1059.12,315.73 L1056.47,311.5 L1053.79,307.29 L1051.06,303.11 L1048.3,298.96 L1045.5,294.83 L1042.66,290.72 L1039.78,286.65 L1036.87,282.6 L1033.92,278.57 L1030.93,274.58 L1027.9,270.61 L1024.84,266.67 L1021.74,262.76 L1018.61,258.88 L1015.44,255.02 L1012.24,251.2 L1008.99,247.4 L1005.72,243.64 L1002.41,239.91 L999.06,236.2 L995.69,232.53 L992.27,228.89 L988.83,225.28 L985.35,221.71 L981.84,218.16 L978.29,214.65 L974.72,211.17 L971.11,207.73 L967.47,204.31 L963.8,200.94 L960.09,197.59 L956.36,194.28 L952.6,191.01 L948.8,187.76 L944.98,184.56 L941.12,181.39 L937.24,178.26 L933.33,175.16 L929.39,172.1 L925.42,169.07 L921.43,166.08 L917.4,163.13 L913.35,160.22 L909.28,157.34 L905.17,154.5 L901.04,151.7 L896.89,148.94 L892.71,146.21 L888.5,143.53 L884.27,140.88 L880.02,138.28 L875.74,135.71 L871.44,133.18 L867.11,130.69 L862.77,128.24 L858.4,125.84 L854,123.47 L849.59,121.14 L845.15,118.86 L840.7,116.61 L836.22,114.41 L831.73,112.25 L827.21,110.13 L822.67,108.05 L818.12,106.01 L813.54,104.02 L808.95,102.07 L804.34,100.16 L799.71,98.29 L795.07,96.46 L790.41,94.68 L785.73,92.95 L781.04,91.25 L776.33,89.6 L771.61,87.99 L766.87,86.43 L762.12,84.91 L757.35,83.43 L752.57,82 L747.78,80.61 L742.97,79.27 L738.16,77.97 L733.33,76.72 L728.49,75.51 L723.63,74.34 L718.77,73.22 L713.9,72.15 L709.02,71.12 L704.13,70.13 L699.22,69.19 L694.32,68.3 L689.4,67.45 L684.47,66.65 L679.54,65.89 L674.6,65.18 L669.66,64.51 L664.71,63.89 L659.75,63.32 L654.79,62.79 L649.82,62.3 L644.85,61.87 L639.88,61.47 L634.9,61.13 L629.92,60.83 L624.94,60.58 L619.95,60.37 L614.97,60.21 L609.98,60.09 L604.99,60.02 L600,60 L595.01,60.02 L590.02,60.09 L585.03,60.21 L580.05,60.37 L575.06,60.58 L570.08,60.83 L565.1,61.13 L560.12,61.47 L555.15,61.87 L550.18,62.3 L545.21,62.79 L540.25,63.32 L535.29,63.89 L530.34,64.51 L525.4,65.18 L520.46,65.89 L515.53,66.65 L510.6,67.45 L505.68,68.3 L500.78,69.19 L495.87,70.13 L490.98,71.12 L486.1,72.15 L481.23,73.22 L476.37,74.34 L471.51,75.51 L466.67,76.72 L461.84,77.97 L457.03,79.27 L452.22,80.61 L447.43,82 L442.65,83.43 L437.88,84.91 L433.13,86.43 L428.39,87.99 L423.67,89.6 L418.96,91.25 L414.27,92.95 L409.59,94.68 L404.93,96.46 L400.29,98.29 L395.66,100.16 L391.05,102.07 L386.46,104.02 L381.88,106.01 L377.33,108.05 L372.79,110.13 L368.27,112.25 L363.78,114.41 L359.3,116.61 L354.85,118.86 L350.41,121.14 L346,123.47 L341.6,125.84 L337.23,128.24 L332.89,130.69 L328.56,133.18 L324.26,135.71 L319.98,138.28 L315.73,140.88 L311.5,143.53 L307.29,146.21 L303.11,148.94 L298.96,151.7 L294.83,154.5 L290.72,157.34 L286.65,160.22 L282.6,163.13 L278.57,166.08 L274.58,169.07 L270.61,172.1 L266.67,175.16 L262.76,178.26 L258.88,181.39 L255.02,184.56 L251.2,187.76 L247.4,191.01 L243.64,194.28 L239.91,197.59 L236.2,200.94 L232.53,204.31 L228.89,207.73 L225.28,211.17 L221.71,214.65 L218.16,218.16 L214.65,221.71 L211.17,225.28 L207.73,228.89 L204.31,232.53 L200.94,236.2 L197.59,239.91 L194.28,243.64 L191.01,247.4 L187.76,251.2 L184.56,255.02 L181.39,258.88 L178.26,262.76 L175.16,266.67 L172.1,270.61 L169.07,274.58 L166.08,278.57 L163.13,282.6 L160.22,286.65 L157.34,290.72 L154.5,294.83 L151.7,298.96 L148.94,303.11 L146.21,307.29 L143.53,311.5 L140.88,315.73 L138.28,319.98 L135.71,324.26 L133.18,328.56 L130.69,332.89 L128.24,337.23 L125.84,341.6 L123.47,346 L121.14,350.41 L118.86,354.85 L116.61,359.3 L114.41,363.78 L112.25,368.27 L110.13,372.79 L108.05,377.33 L106.01,381.88 L104.02,386.46 L102.07,391.05 L100.16,395.66 L98.29,400.29 L96.46,404.93 L94.68,409.59 L92.95,414.27 L91.25,418.96 L89.6,423.67 L87.99,428.39 L86.43,433.13 L84.91,437.88 L83.43,442.65 L82,447.43 L80.61,452.22 L79.27,457.03 L77.97,461.84 L76.72,466.67 L75.51,471.51 L74.34,476.37 L73.22,481.23 L72.15,486.1 L71.12,490.98 L70.13,495.87 L69.19,500.78 L68.3,505.68 L67.45,510.6 L66.65,515.53 L65.89,520.46 L65.18,525.4 L64.51,530.34 L63.89,535.29 L63.32,540.25 L62.79,545.21 L62.3,550.18 L61.87,555.15 L61.47,560.12 L61.13,565.1 L60.83,570.08 L60.58,575.06 L60.37,580.05 L60.21,585.03 L60.09,590.02 L60.02,595.01 L60,600 Z" fill="#E6F4F2" stroke="#075F5A" stroke-width="8"/></svg>