0
SECTION
2
HEADER
9
$ACADVER
1
AC1015
9
$INSUNITS
70
4
9
$EXTMIN
10
0
20
0
30
0
9
$EXTMAX
10
6000
20
960
30
0
0
ENDSEC
0
SECTION
2
TABLES
0
TABLE
2
LTYPE
70
1
0
LTYPE
2
CONTINUOUS
70
0
3
Solid line
72
65
73
0
40
0
0
ENDTAB
0
TABLE
2
LAYER
70
4
0
LAYER
2
OUTLINE
70
0
62
7
6
CONTINUOUS
0
LAYER
2
CUT
70
0
62
1
6
CONTINUOUS
0
LAYER
2
LABEL
70
0
62
3
6
CONTINUOUS
0
LAYER
2
MARK
70
0
62
5
6
CONTINUOUS
0
ENDTAB
0
TABLE
2
STYLE
70
1
0
STYLE
2
STANDARD
70
0
40
0
41
1
50
0
71
0
42
2.5
3
txt
4

0
ENDTAB
0
ENDSEC
0
SECTION
2
ENTITIES
0
LWPOLYLINE
100
AcDbEntity
8
OUTLINE
100
AcDbPolyline
90
4
70
1
10
0
20
0
10
6000
20
0
10
6000
20
80
10
0
20
80
0
TEXT
100
AcDbEntity
8
LABEL
100
AcDbText
10
0
20
-22
30
0
40
18
1
COMPRA-DEMO_60-ACERO-HOJA stock 6000.00
7
STANDARD
0
LINE
100
AcDbEntity
8
MARK
100
AcDbLine
10
15
20
0
30
0
11
15
21
80
31
0
0
LINE
100
AcDbEntity
8
MARK
100
AcDbLine
10
1987
20
0
30
0
11
1987
21
80
31
0
0
TEXT
100
AcDbEntity
8
LABEL
100
AcDbText
10
983
20
10
30
0
40
18
1
P10-U01-M06-R 1972.00 90/90
7
STANDARD
0
LINE
100
AcDbEntity
8
MARK
100
AcDbLine
10
3963
20
0
30
0
11
3963
21
80
31
0
0
TEXT
100
AcDbEntity
8
LABEL
100
AcDbText
10
2959
20
10
30
0
40
18
1
P10-U01-M07-R 1972.00 90/90
7
STANDARD
0
LINE
100
AcDbEntity
8
MARK
100
AcDbLine
10
4939
20
0
30
0
11
4939
21
80
31
0
0
TEXT
100
AcDbEntity
8
LABEL
100
AcDbText
10
4435
20
10
30
0
40
18
1
P10-U01-M05-R 972.00 90/90
7
STANDARD
0
LINE
100
AcDbEntity
8
MARK
100
AcDbLine
10
5915
20
0
30
0
11
5915
21
80
31
0
0
TEXT
100
AcDbEntity
8
LABEL
100
AcDbText
10
5411
20
10
30
0
40
18
1
P10-U01-M08-R 972.00 90/90
7
STANDARD
0
LWPOLYLINE
100
AcDbEntity
8
OUTLINE
100
AcDbPolyline
90
4
70
1
10
0
20
120
10
6000
20
120
10
6000
20
200
10
0
20
200
0
TEXT
100
AcDbEntity
8
LABEL
100
AcDbText
10
0
20
98
30
0
40
18
1
COMPRA-DEMO_60-ACERO-MARCO stock 6000.00
7
STANDARD
0
LINE
100
AcDbEntity
8
MARK
100
AcDbLine
10
15
20
120
30
0
11
15
21
200
31
0
0
LINE
100
AcDbEntity
8
MARK
100
AcDbLine
10
2091
20
120
30
0
11
2091
21
200
31
0
0
TEXT
100
AcDbEntity
8
LABEL
100
AcDbText
10
1035
20
130
30
0
40
18
1
P10-U01-M02-R 2076.00 90/90
7
STANDARD
0
LINE
100
AcDbEntity
8
MARK
100
AcDbLine
10
4171
20
120
30
0
11
4171
21
200
31
0
0
TEXT
100
AcDbEntity
8
LABEL
100
AcDbText
10
3115
20
130
30
0
40
18
1
P10-U01-M03-R 2076.00 90/90
7
STANDARD
0
LINE
100
AcDbEntity
8
MARK
100
AcDbLine
10
5251
20
120
30
0
11
5251
21
200
31
0
0
TEXT
100
AcDbEntity
8
LABEL
100
AcDbText
10
4695
20
130
30
0
40
18
1
P10-U01-M01-R 1076.00 90/90
7
STANDARD
0
LWPOLYLINE
100
AcDbEntity
8
OUTLINE
100
AcDbPolyline
90
4
70
1
10
0
20
240
10
6000
20
240
10
6000
20
320
10
0
20
320
0
TEXT
100
AcDbEntity
8
LABEL
100
AcDbText
10
0
20
218
30
0
40
18
1
COMPRA-DEMO_60-ACERO-MARCO stock 6000.00
7
STANDARD
0
LINE
100
AcDbEntity
8
MARK
100
AcDbLine
10
15
20
240
30
0
11
15
21
320
31
0
0
LINE
100
AcDbEntity
8
MARK
100
AcDbLine
10
1091
20
240
30
0
11
1091
21
320
31
0
0
TEXT
100
AcDbEntity
8
LABEL
100
AcDbText
10
535
20
250
30
0
40
18
1
P10-U01-M04-R 1076.00 90/90
7
STANDARD
0
LWPOLYLINE
100
AcDbEntity
8
OUTLINE
100
AcDbPolyline
90
4
70
1
10
0
20
360
10
6000
20
360
10
6000
20
440
10
0
20
440
0
TEXT
100
AcDbEntity
8
LABEL
100
AcDbText
10
0
20
338
30
0
40
18
1
COMPRA-DEMO_60-HOJA stock 6000.00
7
STANDARD
0
LINE
100
AcDbEntity
8
MARK
100
AcDbLine
10
15
20
360
30
0
11
15
21
440
31
0
0
LINE
100
AcDbEntity
8
MARK
100
AcDbLine
10
2017
20
360
30
0
11
2017
21
440
31
0
0
TEXT
100
AcDbEntity
8
LABEL
100
AcDbText
10
998
20
370
30
0
40
18
1
P10-U01-M06 2002.00 45.0/45.0
7
STANDARD
0
LINE
100
AcDbEntity
8
MARK
100
AcDbLine
10
4023
20
360
30
0
11
4023
21
440
31
0
0
TEXT
100
AcDbEntity
8
LABEL
100
AcDbText
10
3004
20
370
30
0
40
18
1
P10-U01-M07 2002.00 45.0/45.0
7
STANDARD
0
LINE
100
AcDbEntity
8
MARK
100
AcDbLine
10
5029
20
360
30
0
11
5029
21
440
31
0
0
TEXT
100
AcDbEntity
8
LABEL
100
AcDbText
10
4510
20
370
30
0
40
18
1
P10-U01-M05 1002.00 45.0/45.0
7
STANDARD
0
LWPOLYLINE
100
AcDbEntity
8
OUTLINE
100
AcDbPolyline
90
4
70
1
10
0
20
480
10
6000
20
480
10
6000
20
560
10
0
20
560
0
TEXT
100
AcDbEntity
8
LABEL
100
AcDbText
10
0
20
458
30
0
40
18
1
COMPRA-DEMO_60-HOJA stock 6000.00
7
STANDARD
0
LINE
100
AcDbEntity
8
MARK
100
AcDbLine
10
15
20
480
30
0
11
15
21
560
31
0
0
LINE
100
AcDbEntity
8
MARK
100
AcDbLine
10
1017
20
480
30
0
11
1017
21
560
31
0
0
TEXT
100
AcDbEntity
8
LABEL
100
AcDbText
10
498
20
490
30
0
40
18
1
P10-U01-M08 1002.00 45.0/45.0
7
STANDARD
0
LWPOLYLINE
100
AcDbEntity
8
OUTLINE
100
AcDbPolyline
90
4
70
1
10
0
20
600
10
6000
20
600
10
6000
20
680
10
0
20
680
0
TEXT
100
AcDbEntity
8
LABEL
100
AcDbText
10
0
20
578
30
0
40
18
1
COMPRA-DEMO_60-JQ-10 stock 6000.00
7
STANDARD
0
LINE
100
AcDbEntity
8
MARK
100
AcDbLine
10
15
20
600
30
0
11
15
21
680
31
0
0
LINE
100
AcDbEntity
8
MARK
100
AcDbLine
10
1894
20
600
30
0
11
1894
21
680
31
0
0
TEXT
100
AcDbEntity
8
LABEL
100
AcDbText
10
936.500
20
610
30
0
40
18
1
P10-U01-M10 1879.00 90.0/90.0
7
STANDARD
0
LINE
100
AcDbEntity
8
MARK
100
AcDbLine
10
3777
20
600
30
0
11
3777
21
680
31
0
0
TEXT
100
AcDbEntity
8
LABEL
100
AcDbText
10
2819.500
20
610
30
0
40
18
1
P10-U01-M11 1879.00 90.0/90.0
7
STANDARD
0
LINE
100
AcDbEntity
8
MARK
100
AcDbLine
10
4660
20
600
30
0
11
4660
21
680
31
0
0
TEXT
100
AcDbEntity
8
LABEL
100
AcDbText
10
4202.500
20
610
30
0
40
18
1
P10-U01-M09 879.00 90.0/90.0
7
STANDARD
0
LINE
100
AcDbEntity
8
MARK
100
AcDbLine
10
5543
20
600
30
0
11
5543
21
680
31
0
0
TEXT
100
AcDbEntity
8
LABEL
100
AcDbText
10
5085.500
20
610
30
0
40
18
1
P10-U01-M12 879.00 90.0/90.0
7
STANDARD
0
LWPOLYLINE
100
AcDbEntity
8
OUTLINE
100
AcDbPolyline
90
4
70
1
10
0
20
720
10
6000
20
720
10
6000
20
800
10
0
20
800
0
TEXT
100
AcDbEntity
8
LABEL
100
AcDbText
10
0
20
698
30
0
40
18
1
COMPRA-DEMO_60-MARCO stock 6000.00
7
STANDARD
0
LINE
100
AcDbEntity
8
MARK
100
AcDbLine
10
15
20
720
30
0
11
15
21
800
31
0
0
LINE
100
AcDbEntity
8
MARK
100
AcDbLine
10
2121
20
720
30
0
11
2121
21
800
31
0
0
TEXT
100
AcDbEntity
8
LABEL
100
AcDbText
10
1050
20
730
30
0
40
18
1
P10-U01-M02 2106.00 45.0/45.0
7
STANDARD
0
LINE
100
AcDbEntity
8
MARK
100
AcDbLine
10
4231
20
720
30
0
11
4231
21
800
31
0
0
TEXT
100
AcDbEntity
8
LABEL
100
AcDbText
10
3160
20
730
30
0
40
18
1
P10-U01-M03 2106.00 45.0/45.0
7
STANDARD
0
LINE
100
AcDbEntity
8
MARK
100
AcDbLine
10
5341
20
720
30
0
11
5341
21
800
31
0
0
TEXT
100
AcDbEntity
8
LABEL
100
AcDbText
10
4770
20
730
30
0
40
18
1
P10-U01-M01 1106.00 45.0/45.0
7
STANDARD
0
LWPOLYLINE
100
AcDbEntity
8
OUTLINE
100
AcDbPolyline
90
4
70
1
10
0
20
840
10
6000
20
840
10
6000
20
920
10
0
20
920
0
TEXT
100
AcDbEntity
8
LABEL
100
AcDbText
10
0
20
818
30
0
40
18
1
COMPRA-DEMO_60-MARCO stock 6000.00
7
STANDARD
0
LINE
100
AcDbEntity
8
MARK
100
AcDbLine
10
15
20
840
30
0
11
15
21
920
31
0
0
LINE
100
AcDbEntity
8
MARK
100
AcDbLine
10
1121
20
840
30
0
11
1121
21
920
31
0
0
TEXT
100
AcDbEntity
8
LABEL
100
AcDbText
10
550
20
850
30
0
40
18
1
P10-U01-M04 1106.00 45.0/45.0
7
STANDARD
0
ENDSEC
0
EOF
