0
SECTION
2
HEADER
9
$ACADVER
1
AC1015
9
$INSUNITS
70
4
9
$EXTMIN
10
0
20
0
30
0
9
$EXTMAX
10
6000
20
600
30
0
0
ENDSEC
0
SECTION
2
TABLES
0
TABLE
2
LTYPE
70
1
0
LTYPE
2
CONTINUOUS
70
0
3
Solid line
72
65
73
0
40
0
0
ENDTAB
0
TABLE
2
LAYER
70
4
0
LAYER
2
OUTLINE
70
0
62
7
6
CONTINUOUS
0
LAYER
2
CUT
70
0
62
1
6
CONTINUOUS
0
LAYER
2
LABEL
70
0
62
3
6
CONTINUOUS
0
LAYER
2
MARK
70
0
62
5
6
CONTINUOUS
0
ENDTAB
0
TABLE
2
STYLE
70
1
0
STYLE
2
STANDARD
70
0
40
0
41
1
50
0
71
0
42
2.5
3
txt
4

0
ENDTAB
0
ENDSEC
0
SECTION
2
ENTITIES
0
LWPOLYLINE
100
AcDbEntity
8
OUTLINE
100
AcDbPolyline
90
4
70
1
10
0
20
0
10
6000
20
0
10
6000
20
80
10
0
20
80
0
TEXT
100
AcDbEntity
8
LABEL
100
AcDbText
10
0
20
-22
30
0
40
18
1
COMPRA-DEMO_60-ACERO-HOJA stock 6000.00
7
STANDARD
0
LINE
100
AcDbEntity
8
MARK
100
AcDbLine
10
15
20
0
30
0
11
15
21
80
31
0
0
LINE
100
AcDbEntity
8
MARK
100
AcDbLine
10
1287
20
0
30
0
11
1287
21
80
31
0
0
TEXT
100
AcDbEntity
8
LABEL
100
AcDbText
10
633
20
10
30
0
40
18
1
P01-U01-M06-R 1272.00 90/90
7
STANDARD
0
LINE
100
AcDbEntity
8
MARK
100
AcDbLine
10
2563
20
0
30
0
11
2563
21
80
31
0
0
TEXT
100
AcDbEntity
8
LABEL
100
AcDbText
10
1909
20
10
30
0
40
18
1
P01-U01-M07-R 1272.00 90/90
7
STANDARD
0
LWPOLYLINE
100
AcDbEntity
8
OUTLINE
100
AcDbPolyline
90
4
70
1
10
0
20
120
10
6000
20
120
10
6000
20
200
10
0
20
200
0
TEXT
100
AcDbEntity
8
LABEL
100
AcDbText
10
0
20
98
30
0
40
18
1
COMPRA-DEMO_60-ACERO-MARCO stock 6000.00
7
STANDARD
0
LINE
100
AcDbEntity
8
MARK
100
AcDbLine
10
15
20
120
30
0
11
15
21
200
31
0
0
LINE
100
AcDbEntity
8
MARK
100
AcDbLine
10
1391
20
120
30
0
11
1391
21
200
31
0
0
TEXT
100
AcDbEntity
8
LABEL
100
AcDbText
10
685
20
130
30
0
40
18
1
P01-U01-M02-R 1376.00 90/90
7
STANDARD
0
LINE
100
AcDbEntity
8
MARK
100
AcDbLine
10
2771
20
120
30
0
11
2771
21
200
31
0
0
TEXT
100
AcDbEntity
8
LABEL
100
AcDbText
10
2065
20
130
30
0
40
18
1
P01-U01-M03-R 1376.00 90/90
7
STANDARD
0
LWPOLYLINE
100
AcDbEntity
8
OUTLINE
100
AcDbPolyline
90
4
70
1
10
0
20
240
10
6000
20
240
10
6000
20
320
10
0
20
320
0
TEXT
100
AcDbEntity
8
LABEL
100
AcDbText
10
0
20
218
30
0
40
18
1
COMPRA-DEMO_60-HOJA stock 6000.00
7
STANDARD
0
LINE
100
AcDbEntity
8
MARK
100
AcDbLine
10
15
20
240
30
0
11
15
21
320
31
0
0
LINE
100
AcDbEntity
8
MARK
100
AcDbLine
10
1317
20
240
30
0
11
1317
21
320
31
0
0
TEXT
100
AcDbEntity
8
LABEL
100
AcDbText
10
648
20
250
30
0
40
18
1
P01-U01-M06 1302.00 45.0/45.0
7
STANDARD
0
LINE
100
AcDbEntity
8
MARK
100
AcDbLine
10
2623
20
240
30
0
11
2623
21
320
31
0
0
TEXT
100
AcDbEntity
8
LABEL
100
AcDbText
10
1954
20
250
30
0
40
18
1
P01-U01-M07 1302.00 45.0/45.0
7
STANDARD
0
LINE
100
AcDbEntity
8
MARK
100
AcDbLine
10
3429
20
240
30
0
11
3429
21
320
31
0
0
TEXT
100
AcDbEntity
8
LABEL
100
AcDbText
10
3010
20
250
30
0
40
18
1
P01-U01-M05 802.00 45.0/45.0
7
STANDARD
0
LINE
100
AcDbEntity
8
MARK
100
AcDbLine
10
4235
20
240
30
0
11
4235
21
320
31
0
0
TEXT
100
AcDbEntity
8
LABEL
100
AcDbText
10
3816
20
250
30
0
40
18
1
P01-U01-M08 802.00 45.0/45.0
7
STANDARD
0
LWPOLYLINE
100
AcDbEntity
8
OUTLINE
100
AcDbPolyline
90
4
70
1
10
0
20
360
10
6000
20
360
10
6000
20
440
10
0
20
440
0
TEXT
100
AcDbEntity
8
LABEL
100
AcDbText
10
0
20
338
30
0
40
18
1
COMPRA-DEMO_60-JQ-10 stock 6000.00
7
STANDARD
0
LINE
100
AcDbEntity
8
MARK
100
AcDbLine
10
15
20
360
30
0
11
15
21
440
31
0
0
LINE
100
AcDbEntity
8
MARK
100
AcDbLine
10
1194
20
360
30
0
11
1194
21
440
31
0
0
TEXT
100
AcDbEntity
8
LABEL
100
AcDbText
10
586.500
20
370
30
0
40
18
1
P01-U01-M10 1179.00 90.0/90.0
7
STANDARD
0
LINE
100
AcDbEntity
8
MARK
100
AcDbLine
10
2377
20
360
30
0
11
2377
21
440
31
0
0
TEXT
100
AcDbEntity
8
LABEL
100
AcDbText
10
1769.500
20
370
30
0
40
18
1
P01-U01-M11 1179.00 90.0/90.0
7
STANDARD
0
LINE
100
AcDbEntity
8
MARK
100
AcDbLine
10
3060
20
360
30
0
11
3060
21
440
31
0
0
TEXT
100
AcDbEntity
8
LABEL
100
AcDbText
10
2702.500
20
370
30
0
40
18
1
P01-U01-M09 679.00 90.0/90.0
7
STANDARD
0
LINE
100
AcDbEntity
8
MARK
100
AcDbLine
10
3743
20
360
30
0
11
3743
21
440
31
0
0
TEXT
100
AcDbEntity
8
LABEL
100
AcDbText
10
3385.500
20
370
30
0
40
18
1
P01-U01-M12 679.00 90.0/90.0
7
STANDARD
0
LWPOLYLINE
100
AcDbEntity
8
OUTLINE
100
AcDbPolyline
90
4
70
1
10
0
20
480
10
6000
20
480
10
6000
20
560
10
0
20
560
0
TEXT
100
AcDbEntity
8
LABEL
100
AcDbText
10
0
20
458
30
0
40
18
1
COMPRA-DEMO_60-MARCO stock 6000.00
7
STANDARD
0
LINE
100
AcDbEntity
8
MARK
100
AcDbLine
10
15
20
480
30
0
11
15
21
560
31
0
0
LINE
100
AcDbEntity
8
MARK
100
AcDbLine
10
1421
20
480
30
0
11
1421
21
560
31
0
0
TEXT
100
AcDbEntity
8
LABEL
100
AcDbText
10
700
20
490
30
0
40
18
1
P01-U01-M02 1406.00 45.0/45.0
7
STANDARD
0
LINE
100
AcDbEntity
8
MARK
100
AcDbLine
10
2831
20
480
30
0
11
2831
21
560
31
0
0
TEXT
100
AcDbEntity
8
LABEL
100
AcDbText
10
2110
20
490
30
0
40
18
1
P01-U01-M03 1406.00 45.0/45.0
7
STANDARD
0
LINE
100
AcDbEntity
8
MARK
100
AcDbLine
10
3741
20
480
30
0
11
3741
21
560
31
0
0
TEXT
100
AcDbEntity
8
LABEL
100
AcDbText
10
3270
20
490
30
0
40
18
1
P01-U01-M01 906.00 45.0/45.0
7
STANDARD
0
LINE
100
AcDbEntity
8
MARK
100
AcDbLine
10
4651
20
480
30
0
11
4651
21
560
31
0
0
TEXT
100
AcDbEntity
8
LABEL
100
AcDbText
10
4180
20
490
30
0
40
18
1
P01-U01-M04 906.00 45.0/45.0
7
STANDARD
0
ENDSEC
0
EOF
