0
SECTION
2
HEADER
9
$ACADVER
1
AC1015
9
$INSUNITS
70
4
9
$EXTMIN
10
0
20
0
30
0
9
$EXTMAX
10
6000
20
1440
30
0
0
ENDSEC
0
SECTION
2
TABLES
0
TABLE
2
LTYPE
70
1
0
LTYPE
2
CONTINUOUS
70
0
3
Solid line
72
65
73
0
40
0
0
ENDTAB
0
TABLE
2
LAYER
70
4
0
LAYER
2
OUTLINE
70
0
62
7
6
CONTINUOUS
0
LAYER
2
CUT
70
0
62
1
6
CONTINUOUS
0
LAYER
2
LABEL
70
0
62
3
6
CONTINUOUS
0
LAYER
2
MARK
70
0
62
5
6
CONTINUOUS
0
ENDTAB
0
TABLE
2
STYLE
70
1
0
STYLE
2
STANDARD
70
0
40
0
41
1
50
0
71
0
42
2.5
3
txt
4

0
ENDTAB
0
ENDSEC
0
SECTION
2
ENTITIES
0
LWPOLYLINE
100
AcDbEntity
8
OUTLINE
100
AcDbPolyline
90
4
70
1
10
0
20
0
10
6000
20
0
10
6000
20
80
10
0
20
80
0
TEXT
100
AcDbEntity
8
LABEL
100
AcDbText
10
0
20
-22
30
0
40
18
1
COMPRA-DEMO_60-ACERO-HOJA stock 6000.00
7
STANDARD
0
LINE
100
AcDbEntity
8
MARK
100
AcDbLine
10
15
20
0
30
0
11
15
21
80
31
0
0
LINE
100
AcDbEntity
8
MARK
100
AcDbLine
10
1287
20
0
30
0
11
1287
21
80
31
0
0
TEXT
100
AcDbEntity
8
LABEL
100
AcDbText
10
633
20
10
30
0
40
18
1
P09-U01-M06-R 1272.00 90/90
7
STANDARD
0
LINE
100
AcDbEntity
8
MARK
100
AcDbLine
10
2563
20
0
30
0
11
2563
21
80
31
0
0
TEXT
100
AcDbEntity
8
LABEL
100
AcDbText
10
1909
20
10
30
0
40
18
1
P09-U02-M06-R 1272.00 90/90
7
STANDARD
0
LINE
100
AcDbEntity
8
MARK
100
AcDbLine
10
3839
20
0
30
0
11
3839
21
80
31
0
0
TEXT
100
AcDbEntity
8
LABEL
100
AcDbText
10
3185
20
10
30
0
40
18
1
P09-U03-M06-R 1272.00 90/90
7
STANDARD
0
LINE
100
AcDbEntity
8
MARK
100
AcDbLine
10
5115
20
0
30
0
11
5115
21
80
31
0
0
TEXT
100
AcDbEntity
8
LABEL
100
AcDbText
10
4461
20
10
30
0
40
18
1
P09-U01-M07-R 1272.00 90/90
7
STANDARD
0
LWPOLYLINE
100
AcDbEntity
8
OUTLINE
100
AcDbPolyline
90
4
70
1
10
0
20
120
10
6000
20
120
10
6000
20
200
10
0
20
200
0
TEXT
100
AcDbEntity
8
LABEL
100
AcDbText
10
0
20
98
30
0
40
18
1
COMPRA-DEMO_60-ACERO-HOJA stock 6000.00
7
STANDARD
0
LINE
100
AcDbEntity
8
MARK
100
AcDbLine
10
15
20
120
30
0
11
15
21
200
31
0
0
LINE
100
AcDbEntity
8
MARK
100
AcDbLine
10
1287
20
120
30
0
11
1287
21
200
31
0
0
TEXT
100
AcDbEntity
8
LABEL
100
AcDbText
10
633
20
130
30
0
40
18
1
P09-U02-M07-R 1272.00 90/90
7
STANDARD
0
LINE
100
AcDbEntity
8
MARK
100
AcDbLine
10
2563
20
120
30
0
11
2563
21
200
31
0
0
TEXT
100
AcDbEntity
8
LABEL
100
AcDbText
10
1909
20
130
30
0
40
18
1
P09-U03-M07-R 1272.00 90/90
7
STANDARD
0
LWPOLYLINE
100
AcDbEntity
8
OUTLINE
100
AcDbPolyline
90
4
70
1
10
0
20
240
10
6000
20
240
10
6000
20
320
10
0
20
320
0
TEXT
100
AcDbEntity
8
LABEL
100
AcDbText
10
0
20
218
30
0
40
18
1
COMPRA-DEMO_60-ACERO-MARCO stock 6000.00
7
STANDARD
0
LINE
100
AcDbEntity
8
MARK
100
AcDbLine
10
15
20
240
30
0
11
15
21
320
31
0
0
LINE
100
AcDbEntity
8
MARK
100
AcDbLine
10
1391
20
240
30
0
11
1391
21
320
31
0
0
TEXT
100
AcDbEntity
8
LABEL
100
AcDbText
10
685
20
250
30
0
40
18
1
P09-U01-M02-R 1376.00 90/90
7
STANDARD
0
LINE
100
AcDbEntity
8
MARK
100
AcDbLine
10
2771
20
240
30
0
11
2771
21
320
31
0
0
TEXT
100
AcDbEntity
8
LABEL
100
AcDbText
10
2065
20
250
30
0
40
18
1
P09-U02-M02-R 1376.00 90/90
7
STANDARD
0
LINE
100
AcDbEntity
8
MARK
100
AcDbLine
10
4151
20
240
30
0
11
4151
21
320
31
0
0
TEXT
100
AcDbEntity
8
LABEL
100
AcDbText
10
3445
20
250
30
0
40
18
1
P09-U03-M02-R 1376.00 90/90
7
STANDARD
0
LINE
100
AcDbEntity
8
MARK
100
AcDbLine
10
5531
20
240
30
0
11
5531
21
320
31
0
0
TEXT
100
AcDbEntity
8
LABEL
100
AcDbText
10
4825
20
250
30
0
40
18
1
P09-U01-M03-R 1376.00 90/90
7
STANDARD
0
LWPOLYLINE
100
AcDbEntity
8
OUTLINE
100
AcDbPolyline
90
4
70
1
10
0
20
360
10
6000
20
360
10
6000
20
440
10
0
20
440
0
TEXT
100
AcDbEntity
8
LABEL
100
AcDbText
10
0
20
338
30
0
40
18
1
COMPRA-DEMO_60-ACERO-MARCO stock 6000.00
7
STANDARD
0
LINE
100
AcDbEntity
8
MARK
100
AcDbLine
10
15
20
360
30
0
11
15
21
440
31
0
0
LINE
100
AcDbEntity
8
MARK
100
AcDbLine
10
1391
20
360
30
0
11
1391
21
440
31
0
0
TEXT
100
AcDbEntity
8
LABEL
100
AcDbText
10
685
20
370
30
0
40
18
1
P09-U02-M03-R 1376.00 90/90
7
STANDARD
0
LINE
100
AcDbEntity
8
MARK
100
AcDbLine
10
2771
20
360
30
0
11
2771
21
440
31
0
0
TEXT
100
AcDbEntity
8
LABEL
100
AcDbText
10
2065
20
370
30
0
40
18
1
P09-U03-M03-R 1376.00 90/90
7
STANDARD
0
LWPOLYLINE
100
AcDbEntity
8
OUTLINE
100
AcDbPolyline
90
4
70
1
10
0
20
480
10
6000
20
480
10
6000
20
560
10
0
20
560
0
TEXT
100
AcDbEntity
8
LABEL
100
AcDbText
10
0
20
458
30
0
40
18
1
COMPRA-DEMO_60-HOJA stock 6000.00
7
STANDARD
0
LINE
100
AcDbEntity
8
MARK
100
AcDbLine
10
15
20
480
30
0
11
15
21
560
31
0
0
LINE
100
AcDbEntity
8
MARK
100
AcDbLine
10
1317
20
480
30
0
11
1317
21
560
31
0
0
TEXT
100
AcDbEntity
8
LABEL
100
AcDbText
10
648
20
490
30
0
40
18
1
P09-U01-M06 1302.00 45.0/45.0
7
STANDARD
0
LINE
100
AcDbEntity
8
MARK
100
AcDbLine
10
2623
20
480
30
0
11
2623
21
560
31
0
0
TEXT
100
AcDbEntity
8
LABEL
100
AcDbText
10
1954
20
490
30
0
40
18
1
P09-U02-M06 1302.00 45.0/45.0
7
STANDARD
0
LINE
100
AcDbEntity
8
MARK
100
AcDbLine
10
3929
20
480
30
0
11
3929
21
560
31
0
0
TEXT
100
AcDbEntity
8
LABEL
100
AcDbText
10
3260
20
490
30
0
40
18
1
P09-U03-M06 1302.00 45.0/45.0
7
STANDARD
0
LINE
100
AcDbEntity
8
MARK
100
AcDbLine
10
5235
20
480
30
0
11
5235
21
560
31
0
0
TEXT
100
AcDbEntity
8
LABEL
100
AcDbText
10
4566
20
490
30
0
40
18
1
P09-U01-M07 1302.00 45.0/45.0
7
STANDARD
0
LWPOLYLINE
100
AcDbEntity
8
OUTLINE
100
AcDbPolyline
90
4
70
1
10
0
20
600
10
6000
20
600
10
6000
20
680
10
0
20
680
0
TEXT
100
AcDbEntity
8
LABEL
100
AcDbText
10
0
20
578
30
0
40
18
1
COMPRA-DEMO_60-HOJA stock 6000.00
7
STANDARD
0
LINE
100
AcDbEntity
8
MARK
100
AcDbLine
10
15
20
600
30
0
11
15
21
680
31
0
0
LINE
100
AcDbEntity
8
MARK
100
AcDbLine
10
1317
20
600
30
0
11
1317
21
680
31
0
0
TEXT
100
AcDbEntity
8
LABEL
100
AcDbText
10
648
20
610
30
0
40
18
1
P09-U02-M07 1302.00 45.0/45.0
7
STANDARD
0
LINE
100
AcDbEntity
8
MARK
100
AcDbLine
10
2623
20
600
30
0
11
2623
21
680
31
0
0
TEXT
100
AcDbEntity
8
LABEL
100
AcDbText
10
1954
20
610
30
0
40
18
1
P09-U03-M07 1302.00 45.0/45.0
7
STANDARD
0
LINE
100
AcDbEntity
8
MARK
100
AcDbLine
10
3429
20
600
30
0
11
3429
21
680
31
0
0
TEXT
100
AcDbEntity
8
LABEL
100
AcDbText
10
3010
20
610
30
0
40
18
1
P09-U01-M05 802.00 45.0/45.0
7
STANDARD
0
LINE
100
AcDbEntity
8
MARK
100
AcDbLine
10
4235
20
600
30
0
11
4235
21
680
31
0
0
TEXT
100
AcDbEntity
8
LABEL
100
AcDbText
10
3816
20
610
30
0
40
18
1
P09-U02-M05 802.00 45.0/45.0
7
STANDARD
0
LINE
100
AcDbEntity
8
MARK
100
AcDbLine
10
5041
20
600
30
0
11
5041
21
680
31
0
0
TEXT
100
AcDbEntity
8
LABEL
100
AcDbText
10
4622
20
610
30
0
40
18
1
P09-U03-M05 802.00 45.0/45.0
7
STANDARD
0
LINE
100
AcDbEntity
8
MARK
100
AcDbLine
10
5847
20
600
30
0
11
5847
21
680
31
0
0
TEXT
100
AcDbEntity
8
LABEL
100
AcDbText
10
5428
20
610
30
0
40
18
1
P09-U01-M08 802.00 45.0/45.0
7
STANDARD
0
LWPOLYLINE
100
AcDbEntity
8
OUTLINE
100
AcDbPolyline
90
4
70
1
10
0
20
720
10
6000
20
720
10
6000
20
800
10
0
20
800
0
TEXT
100
AcDbEntity
8
LABEL
100
AcDbText
10
0
20
698
30
0
40
18
1
COMPRA-DEMO_60-HOJA stock 6000.00
7
STANDARD
0
LINE
100
AcDbEntity
8
MARK
100
AcDbLine
10
15
20
720
30
0
11
15
21
800
31
0
0
LINE
100
AcDbEntity
8
MARK
100
AcDbLine
10
817
20
720
30
0
11
817
21
800
31
0
0
TEXT
100
AcDbEntity
8
LABEL
100
AcDbText
10
398
20
730
30
0
40
18
1
P09-U02-M08 802.00 45.0/45.0
7
STANDARD
0
LINE
100
AcDbEntity
8
MARK
100
AcDbLine
10
1623
20
720
30
0
11
1623
21
800
31
0
0
TEXT
100
AcDbEntity
8
LABEL
100
AcDbText
10
1204
20
730
30
0
40
18
1
P09-U03-M08 802.00 45.0/45.0
7
STANDARD
0
LWPOLYLINE
100
AcDbEntity
8
OUTLINE
100
AcDbPolyline
90
4
70
1
10
0
20
840
10
6000
20
840
10
6000
20
920
10
0
20
920
0
TEXT
100
AcDbEntity
8
LABEL
100
AcDbText
10
0
20
818
30
0
40
18
1
COMPRA-DEMO_60-JQ-10 stock 6000.00
7
STANDARD
0
LINE
100
AcDbEntity
8
MARK
100
AcDbLine
10
15
20
840
30
0
11
15
21
920
31
0
0
LINE
100
AcDbEntity
8
MARK
100
AcDbLine
10
1194
20
840
30
0
11
1194
21
920
31
0
0
TEXT
100
AcDbEntity
8
LABEL
100
AcDbText
10
586.500
20
850
30
0
40
18
1
P09-U01-M10 1179.00 90.0/90.0
7
STANDARD
0
LINE
100
AcDbEntity
8
MARK
100
AcDbLine
10
2377
20
840
30
0
11
2377
21
920
31
0
0
TEXT
100
AcDbEntity
8
LABEL
100
AcDbText
10
1769.500
20
850
30
0
40
18
1
P09-U02-M10 1179.00 90.0/90.0
7
STANDARD
0
LINE
100
AcDbEntity
8
MARK
100
AcDbLine
10
3560
20
840
30
0
11
3560
21
920
31
0
0
TEXT
100
AcDbEntity
8
LABEL
100
AcDbText
10
2952.500
20
850
30
0
40
18
1
P09-U03-M10 1179.00 90.0/90.0
7
STANDARD
0
LINE
100
AcDbEntity
8
MARK
100
AcDbLine
10
4743
20
840
30
0
11
4743
21
920
31
0
0
TEXT
100
AcDbEntity
8
LABEL
100
AcDbText
10
4135.500
20
850
30
0
40
18
1
P09-U01-M11 1179.00 90.0/90.0
7
STANDARD
0
LINE
100
AcDbEntity
8
MARK
100
AcDbLine
10
5926
20
840
30
0
11
5926
21
920
31
0
0
TEXT
100
AcDbEntity
8
LABEL
100
AcDbText
10
5318.500
20
850
30
0
40
18
1
P09-U02-M11 1179.00 90.0/90.0
7
STANDARD
0
LWPOLYLINE
100
AcDbEntity
8
OUTLINE
100
AcDbPolyline
90
4
70
1
10
0
20
960
10
6000
20
960
10
6000
20
1040
10
0
20
1040
0
TEXT
100
AcDbEntity
8
LABEL
100
AcDbText
10
0
20
938
30
0
40
18
1
COMPRA-DEMO_60-JQ-10 stock 6000.00
7
STANDARD
0
LINE
100
AcDbEntity
8
MARK
100
AcDbLine
10
15
20
960
30
0
11
15
21
1040
31
0
0
LINE
100
AcDbEntity
8
MARK
100
AcDbLine
10
1194
20
960
30
0
11
1194
21
1040
31
0
0
TEXT
100
AcDbEntity
8
LABEL
100
AcDbText
10
586.500
20
970
30
0
40
18
1
P09-U03-M11 1179.00 90.0/90.0
7
STANDARD
0
LINE
100
AcDbEntity
8
MARK
100
AcDbLine
10
1877
20
960
30
0
11
1877
21
1040
31
0
0
TEXT
100
AcDbEntity
8
LABEL
100
AcDbText
10
1519.500
20
970
30
0
40
18
1
P09-U01-M09 679.00 90.0/90.0
7
STANDARD
0
LINE
100
AcDbEntity
8
MARK
100
AcDbLine
10
2560
20
960
30
0
11
2560
21
1040
31
0
0
TEXT
100
AcDbEntity
8
LABEL
100
AcDbText
10
2202.500
20
970
30
0
40
18
1
P09-U02-M09 679.00 90.0/90.0
7
STANDARD
0
LINE
100
AcDbEntity
8
MARK
100
AcDbLine
10
3243
20
960
30
0
11
3243
21
1040
31
0
0
TEXT
100
AcDbEntity
8
LABEL
100
AcDbText
10
2885.500
20
970
30
0
40
18
1
P09-U03-M09 679.00 90.0/90.0
7
STANDARD
0
LINE
100
AcDbEntity
8
MARK
100
AcDbLine
10
3926
20
960
30
0
11
3926
21
1040
31
0
0
TEXT
100
AcDbEntity
8
LABEL
100
AcDbText
10
3568.500
20
970
30
0
40
18
1
P09-U01-M12 679.00 90.0/90.0
7
STANDARD
0
LINE
100
AcDbEntity
8
MARK
100
AcDbLine
10
4609
20
960
30
0
11
4609
21
1040
31
0
0
TEXT
100
AcDbEntity
8
LABEL
100
AcDbText
10
4251.500
20
970
30
0
40
18
1
P09-U02-M12 679.00 90.0/90.0
7
STANDARD
0
LINE
100
AcDbEntity
8
MARK
100
AcDbLine
10
5292
20
960
30
0
11
5292
21
1040
31
0
0
TEXT
100
AcDbEntity
8
LABEL
100
AcDbText
10
4934.500
20
970
30
0
40
18
1
P09-U03-M12 679.00 90.0/90.0
7
STANDARD
0
LWPOLYLINE
100
AcDbEntity
8
OUTLINE
100
AcDbPolyline
90
4
70
1
10
0
20
1080
10
6000
20
1080
10
6000
20
1160
10
0
20
1160
0
TEXT
100
AcDbEntity
8
LABEL
100
AcDbText
10
0
20
1058
30
0
40
18
1
COMPRA-DEMO_60-MARCO stock 6000.00
7
STANDARD
0
LINE
100
AcDbEntity
8
MARK
100
AcDbLine
10
15
20
1080
30
0
11
15
21
1160
31
0
0
LINE
100
AcDbEntity
8
MARK
100
AcDbLine
10
1421
20
1080
30
0
11
1421
21
1160
31
0
0
TEXT
100
AcDbEntity
8
LABEL
100
AcDbText
10
700
20
1090
30
0
40
18
1
P09-U01-M02 1406.00 45.0/45.0
7
STANDARD
0
LINE
100
AcDbEntity
8
MARK
100
AcDbLine
10
2831
20
1080
30
0
11
2831
21
1160
31
0
0
TEXT
100
AcDbEntity
8
LABEL
100
AcDbText
10
2110
20
1090
30
0
40
18
1
P09-U02-M02 1406.00 45.0/45.0
7
STANDARD
0
LINE
100
AcDbEntity
8
MARK
100
AcDbLine
10
4241
20
1080
30
0
11
4241
21
1160
31
0
0
TEXT
100
AcDbEntity
8
LABEL
100
AcDbText
10
3520
20
1090
30
0
40
18
1
P09-U03-M02 1406.00 45.0/45.0
7
STANDARD
0
LINE
100
AcDbEntity
8
MARK
100
AcDbLine
10
5651
20
1080
30
0
11
5651
21
1160
31
0
0
TEXT
100
AcDbEntity
8
LABEL
100
AcDbText
10
4930
20
1090
30
0
40
18
1
P09-U01-M03 1406.00 45.0/45.0
7
STANDARD
0
LWPOLYLINE
100
AcDbEntity
8
OUTLINE
100
AcDbPolyline
90
4
70
1
10
0
20
1200
10
6000
20
1200
10
6000
20
1280
10
0
20
1280
0
TEXT
100
AcDbEntity
8
LABEL
100
AcDbText
10
0
20
1178
30
0
40
18
1
COMPRA-DEMO_60-MARCO stock 6000.00
7
STANDARD
0
LINE
100
AcDbEntity
8
MARK
100
AcDbLine
10
15
20
1200
30
0
11
15
21
1280
31
0
0
LINE
100
AcDbEntity
8
MARK
100
AcDbLine
10
1421
20
1200
30
0
11
1421
21
1280
31
0
0
TEXT
100
AcDbEntity
8
LABEL
100
AcDbText
10
700
20
1210
30
0
40
18
1
P09-U02-M03 1406.00 45.0/45.0
7
STANDARD
0
LINE
100
AcDbEntity
8
MARK
100
AcDbLine
10
2831
20
1200
30
0
11
2831
21
1280
31
0
0
TEXT
100
AcDbEntity
8
LABEL
100
AcDbText
10
2110
20
1210
30
0
40
18
1
P09-U03-M03 1406.00 45.0/45.0
7
STANDARD
0
LINE
100
AcDbEntity
8
MARK
100
AcDbLine
10
3741
20
1200
30
0
11
3741
21
1280
31
0
0
TEXT
100
AcDbEntity
8
LABEL
100
AcDbText
10
3270
20
1210
30
0
40
18
1
P09-U01-M01 906.00 45.0/45.0
7
STANDARD
0
LINE
100
AcDbEntity
8
MARK
100
AcDbLine
10
4651
20
1200
30
0
11
4651
21
1280
31
0
0
TEXT
100
AcDbEntity
8
LABEL
100
AcDbText
10
4180
20
1210
30
0
40
18
1
P09-U02-M01 906.00 45.0/45.0
7
STANDARD
0
LINE
100
AcDbEntity
8
MARK
100
AcDbLine
10
5561
20
1200
30
0
11
5561
21
1280
31
0
0
TEXT
100
AcDbEntity
8
LABEL
100
AcDbText
10
5090
20
1210
30
0
40
18
1
P09-U03-M01 906.00 45.0/45.0
7
STANDARD
0
LWPOLYLINE
100
AcDbEntity
8
OUTLINE
100
AcDbPolyline
90
4
70
1
10
0
20
1320
10
6000
20
1320
10
6000
20
1400
10
0
20
1400
0
TEXT
100
AcDbEntity
8
LABEL
100
AcDbText
10
0
20
1298
30
0
40
18
1
COMPRA-DEMO_60-MARCO stock 6000.00
7
STANDARD
0
LINE
100
AcDbEntity
8
MARK
100
AcDbLine
10
15
20
1320
30
0
11
15
21
1400
31
0
0
LINE
100
AcDbEntity
8
MARK
100
AcDbLine
10
921
20
1320
30
0
11
921
21
1400
31
0
0
TEXT
100
AcDbEntity
8
LABEL
100
AcDbText
10
450
20
1330
30
0
40
18
1
P09-U01-M04 906.00 45.0/45.0
7
STANDARD
0
LINE
100
AcDbEntity
8
MARK
100
AcDbLine
10
1831
20
1320
30
0
11
1831
21
1400
31
0
0
TEXT
100
AcDbEntity
8
LABEL
100
AcDbText
10
1360
20
1330
30
0
40
18
1
P09-U02-M04 906.00 45.0/45.0
7
STANDARD
0
LINE
100
AcDbEntity
8
MARK
100
AcDbLine
10
2741
20
1320
30
0
11
2741
21
1400
31
0
0
TEXT
100
AcDbEntity
8
LABEL
100
AcDbText
10
2270
20
1330
30
0
40
18
1
P09-U03-M04 906.00 45.0/45.0
7
STANDARD
0
ENDSEC
0
EOF
