0
SECTION
2
HEADER
9
$ACADVER
1
AC1015
9
$INSUNITS
70
4
9
$EXTMIN
10
0
20
0
30
0
9
$EXTMAX
10
6000
20
5520
30
0
0
ENDSEC
0
SECTION
2
TABLES
0
TABLE
2
LTYPE
70
1
0
LTYPE
2
CONTINUOUS
70
0
3
Solid line
72
65
73
0
40
0
0
ENDTAB
0
TABLE
2
LAYER
70
4
0
LAYER
2
OUTLINE
70
0
62
7
6
CONTINUOUS
0
LAYER
2
CUT
70
0
62
1
6
CONTINUOUS
0
LAYER
2
LABEL
70
0
62
3
6
CONTINUOUS
0
LAYER
2
MARK
70
0
62
5
6
CONTINUOUS
0
ENDTAB
0
TABLE
2
STYLE
70
1
0
STYLE
2
STANDARD
70
0
40
0
41
1
50
0
71
0
42
2.5
3
txt
4

0
ENDTAB
0
ENDSEC
0
SECTION
2
ENTITIES
0
LWPOLYLINE
100
AcDbEntity
8
OUTLINE
100
AcDbPolyline
90
4
70
1
10
0
20
0
10
6000
20
0
10
6000
20
80
10
0
20
80
0
TEXT
100
AcDbEntity
8
LABEL
100
AcDbText
10
0
20
-22
30
0
40
18
1
COMPRA-DEMO_CORREDERA_60-ACERO-ENCUENTRO stock 6000.00
7
STANDARD
0
LINE
100
AcDbEntity
8
MARK
100
AcDbLine
10
15
20
0
30
0
11
15
21
80
31
0
0
LINE
100
AcDbEntity
8
MARK
100
AcDbLine
10
2261
20
0
30
0
11
2261
21
80
31
0
0
TEXT
100
AcDbEntity
8
LABEL
100
AcDbText
10
1120
20
10
30
0
40
18
1
P03-U01-M08-R 2246.00 90/90
7
STANDARD
0
LINE
100
AcDbEntity
8
MARK
100
AcDbLine
10
4511
20
0
30
0
11
4511
21
80
31
0
0
TEXT
100
AcDbEntity
8
LABEL
100
AcDbText
10
3370
20
10
30
0
40
18
1
P03-U02-M08-R 2246.00 90/90
7
STANDARD
0
LWPOLYLINE
100
AcDbEntity
8
OUTLINE
100
AcDbPolyline
90
4
70
1
10
0
20
120
10
6000
20
120
10
6000
20
200
10
0
20
200
0
TEXT
100
AcDbEntity
8
LABEL
100
AcDbText
10
0
20
98
30
0
40
18
1
COMPRA-DEMO_CORREDERA_60-ACERO-ENCUENTRO stock 6000.00
7
STANDARD
0
LINE
100
AcDbEntity
8
MARK
100
AcDbLine
10
15
20
120
30
0
11
15
21
200
31
0
0
LINE
100
AcDbEntity
8
MARK
100
AcDbLine
10
2261
20
120
30
0
11
2261
21
200
31
0
0
TEXT
100
AcDbEntity
8
LABEL
100
AcDbText
10
1120
20
130
30
0
40
18
1
P03-U03-M08-R 2246.00 90/90
7
STANDARD
0
LINE
100
AcDbEntity
8
MARK
100
AcDbLine
10
4511
20
120
30
0
11
4511
21
200
31
0
0
TEXT
100
AcDbEntity
8
LABEL
100
AcDbText
10
3370
20
130
30
0
40
18
1
P03-U01-M17-R 2246.00 90/90
7
STANDARD
0
LWPOLYLINE
100
AcDbEntity
8
OUTLINE
100
AcDbPolyline
90
4
70
1
10
0
20
240
10
6000
20
240
10
6000
20
320
10
0
20
320
0
TEXT
100
AcDbEntity
8
LABEL
100
AcDbText
10
0
20
218
30
0
40
18
1
COMPRA-DEMO_CORREDERA_60-ACERO-ENCUENTRO stock 6000.00
7
STANDARD
0
LINE
100
AcDbEntity
8
MARK
100
AcDbLine
10
15
20
240
30
0
11
15
21
320
31
0
0
LINE
100
AcDbEntity
8
MARK
100
AcDbLine
10
2261
20
240
30
0
11
2261
21
320
31
0
0
TEXT
100
AcDbEntity
8
LABEL
100
AcDbText
10
1120
20
250
30
0
40
18
1
P03-U02-M17-R 2246.00 90/90
7
STANDARD
0
LINE
100
AcDbEntity
8
MARK
100
AcDbLine
10
4511
20
240
30
0
11
4511
21
320
31
0
0
TEXT
100
AcDbEntity
8
LABEL
100
AcDbText
10
3370
20
250
30
0
40
18
1
P03-U03-M17-R 2246.00 90/90
7
STANDARD
0
LWPOLYLINE
100
AcDbEntity
8
OUTLINE
100
AcDbPolyline
90
4
70
1
10
0
20
360
10
6000
20
360
10
6000
20
440
10
0
20
440
0
TEXT
100
AcDbEntity
8
LABEL
100
AcDbText
10
0
20
338
30
0
40
18
1
COMPRA-DEMO_CORREDERA_60-ACERO-HOJA-CORREDERA stock 6000.00
7
STANDARD
0
LINE
100
AcDbEntity
8
MARK
100
AcDbLine
10
15
20
360
30
0
11
15
21
440
31
0
0
LINE
100
AcDbEntity
8
MARK
100
AcDbLine
10
2261
20
360
30
0
11
2261
21
440
31
0
0
TEXT
100
AcDbEntity
8
LABEL
100
AcDbText
10
1120
20
370
30
0
40
18
1
P03-U01-M09-R 2246.00 90/90
7
STANDARD
0
LINE
100
AcDbEntity
8
MARK
100
AcDbLine
10
4511
20
360
30
0
11
4511
21
440
31
0
0
TEXT
100
AcDbEntity
8
LABEL
100
AcDbText
10
3370
20
370
30
0
40
18
1
P03-U02-M09-R 2246.00 90/90
7
STANDARD
0
LINE
100
AcDbEntity
8
MARK
100
AcDbLine
10
5971
20
360
30
0
11
5971
21
440
31
0
0
TEXT
100
AcDbEntity
8
LABEL
100
AcDbText
10
5225
20
370
30
0
40
18
1
P03-U01-M07-R 1456.00 90/90
7
STANDARD
0
LWPOLYLINE
100
AcDbEntity
8
OUTLINE
100
AcDbPolyline
90
4
70
1
10
0
20
480
10
6000
20
480
10
6000
20
560
10
0
20
560
0
TEXT
100
AcDbEntity
8
LABEL
100
AcDbText
10
0
20
458
30
0
40
18
1
COMPRA-DEMO_CORREDERA_60-ACERO-HOJA-CORREDERA stock 6000.00
7
STANDARD
0
LINE
100
AcDbEntity
8
MARK
100
AcDbLine
10
15
20
480
30
0
11
15
21
560
31
0
0
LINE
100
AcDbEntity
8
MARK
100
AcDbLine
10
2261
20
480
30
0
11
2261
21
560
31
0
0
TEXT
100
AcDbEntity
8
LABEL
100
AcDbText
10
1120
20
490
30
0
40
18
1
P03-U03-M09-R 2246.00 90/90
7
STANDARD
0
LINE
100
AcDbEntity
8
MARK
100
AcDbLine
10
4511
20
480
30
0
11
4511
21
560
31
0
0
TEXT
100
AcDbEntity
8
LABEL
100
AcDbText
10
3370
20
490
30
0
40
18
1
P03-U01-M10-R 2246.00 90/90
7
STANDARD
0
LINE
100
AcDbEntity
8
MARK
100
AcDbLine
10
5971
20
480
30
0
11
5971
21
560
31
0
0
TEXT
100
AcDbEntity
8
LABEL
100
AcDbText
10
5225
20
490
30
0
40
18
1
P03-U02-M07-R 1456.00 90/90
7
STANDARD
0
LWPOLYLINE
100
AcDbEntity
8
OUTLINE
100
AcDbPolyline
90
4
70
1
10
0
20
600
10
6000
20
600
10
6000
20
680
10
0
20
680
0
TEXT
100
AcDbEntity
8
LABEL
100
AcDbText
10
0
20
578
30
0
40
18
1
COMPRA-DEMO_CORREDERA_60-ACERO-HOJA-CORREDERA stock 6000.00
7
STANDARD
0
LINE
100
AcDbEntity
8
MARK
100
AcDbLine
10
15
20
600
30
0
11
15
21
680
31
0
0
LINE
100
AcDbEntity
8
MARK
100
AcDbLine
10
2261
20
600
30
0
11
2261
21
680
31
0
0
TEXT
100
AcDbEntity
8
LABEL
100
AcDbText
10
1120
20
610
30
0
40
18
1
P03-U02-M10-R 2246.00 90/90
7
STANDARD
0
LINE
100
AcDbEntity
8
MARK
100
AcDbLine
10
4511
20
600
30
0
11
4511
21
680
31
0
0
TEXT
100
AcDbEntity
8
LABEL
100
AcDbText
10
3370
20
610
30
0
40
18
1
P03-U03-M10-R 2246.00 90/90
7
STANDARD
0
LINE
100
AcDbEntity
8
MARK
100
AcDbLine
10
5971
20
600
30
0
11
5971
21
680
31
0
0
TEXT
100
AcDbEntity
8
LABEL
100
AcDbText
10
5225
20
610
30
0
40
18
1
P03-U03-M07-R 1456.00 90/90
7
STANDARD
0
LWPOLYLINE
100
AcDbEntity
8
OUTLINE
100
AcDbPolyline
90
4
70
1
10
0
20
720
10
6000
20
720
10
6000
20
800
10
0
20
800
0
TEXT
100
AcDbEntity
8
LABEL
100
AcDbText
10
0
20
698
30
0
40
18
1
COMPRA-DEMO_CORREDERA_60-ACERO-HOJA-CORREDERA stock 6000.00
7
STANDARD
0
LINE
100
AcDbEntity
8
MARK
100
AcDbLine
10
15
20
720
30
0
11
15
21
800
31
0
0
LINE
100
AcDbEntity
8
MARK
100
AcDbLine
10
2261
20
720
30
0
11
2261
21
800
31
0
0
TEXT
100
AcDbEntity
8
LABEL
100
AcDbText
10
1120
20
730
30
0
40
18
1
P03-U01-M18-R 2246.00 90/90
7
STANDARD
0
LINE
100
AcDbEntity
8
MARK
100
AcDbLine
10
4511
20
720
30
0
11
4511
21
800
31
0
0
TEXT
100
AcDbEntity
8
LABEL
100
AcDbText
10
3370
20
730
30
0
40
18
1
P03-U02-M18-R 2246.00 90/90
7
STANDARD
0
LINE
100
AcDbEntity
8
MARK
100
AcDbLine
10
5971
20
720
30
0
11
5971
21
800
31
0
0
TEXT
100
AcDbEntity
8
LABEL
100
AcDbText
10
5225
20
730
30
0
40
18
1
P03-U01-M11-R 1456.00 90/90
7
STANDARD
0
LWPOLYLINE
100
AcDbEntity
8
OUTLINE
100
AcDbPolyline
90
4
70
1
10
0
20
840
10
6000
20
840
10
6000
20
920
10
0
20
920
0
TEXT
100
AcDbEntity
8
LABEL
100
AcDbText
10
0
20
818
30
0
40
18
1
COMPRA-DEMO_CORREDERA_60-ACERO-HOJA-CORREDERA stock 6000.00
7
STANDARD
0
LINE
100
AcDbEntity
8
MARK
100
AcDbLine
10
15
20
840
30
0
11
15
21
920
31
0
0
LINE
100
AcDbEntity
8
MARK
100
AcDbLine
10
2261
20
840
30
0
11
2261
21
920
31
0
0
TEXT
100
AcDbEntity
8
LABEL
100
AcDbText
10
1120
20
850
30
0
40
18
1
P03-U03-M18-R 2246.00 90/90
7
STANDARD
0
LINE
100
AcDbEntity
8
MARK
100
AcDbLine
10
4511
20
840
30
0
11
4511
21
920
31
0
0
TEXT
100
AcDbEntity
8
LABEL
100
AcDbText
10
3370
20
850
30
0
40
18
1
P03-U01-M19-R 2246.00 90/90
7
STANDARD
0
LINE
100
AcDbEntity
8
MARK
100
AcDbLine
10
5971
20
840
30
0
11
5971
21
920
31
0
0
TEXT
100
AcDbEntity
8
LABEL
100
AcDbText
10
5225
20
850
30
0
40
18
1
P03-U02-M11-R 1456.00 90/90
7
STANDARD
0
LWPOLYLINE
100
AcDbEntity
8
OUTLINE
100
AcDbPolyline
90
4
70
1
10
0
20
960
10
6000
20
960
10
6000
20
1040
10
0
20
1040
0
TEXT
100
AcDbEntity
8
LABEL
100
AcDbText
10
0
20
938
30
0
40
18
1
COMPRA-DEMO_CORREDERA_60-ACERO-HOJA-CORREDERA stock 6000.00
7
STANDARD
0
LINE
100
AcDbEntity
8
MARK
100
AcDbLine
10
15
20
960
30
0
11
15
21
1040
31
0
0
LINE
100
AcDbEntity
8
MARK
100
AcDbLine
10
2261
20
960
30
0
11
2261
21
1040
31
0
0
TEXT
100
AcDbEntity
8
LABEL
100
AcDbText
10
1120
20
970
30
0
40
18
1
P03-U02-M19-R 2246.00 90/90
7
STANDARD
0
LINE
100
AcDbEntity
8
MARK
100
AcDbLine
10
4511
20
960
30
0
11
4511
21
1040
31
0
0
TEXT
100
AcDbEntity
8
LABEL
100
AcDbText
10
3370
20
970
30
0
40
18
1
P03-U03-M19-R 2246.00 90/90
7
STANDARD
0
LINE
100
AcDbEntity
8
MARK
100
AcDbLine
10
5971
20
960
30
0
11
5971
21
1040
31
0
0
TEXT
100
AcDbEntity
8
LABEL
100
AcDbText
10
5225
20
970
30
0
40
18
1
P03-U03-M11-R 1456.00 90/90
7
STANDARD
0
LWPOLYLINE
100
AcDbEntity
8
OUTLINE
100
AcDbPolyline
90
4
70
1
10
0
20
1080
10
6000
20
1080
10
6000
20
1160
10
0
20
1160
0
TEXT
100
AcDbEntity
8
LABEL
100
AcDbText
10
0
20
1058
30
0
40
18
1
COMPRA-DEMO_CORREDERA_60-ACERO-HOJA-CORREDERA stock 6000.00
7
STANDARD
0
LINE
100
AcDbEntity
8
MARK
100
AcDbLine
10
15
20
1080
30
0
11
15
21
1160
31
0
0
LINE
100
AcDbEntity
8
MARK
100
AcDbLine
10
1471
20
1080
30
0
11
1471
21
1160
31
0
0
TEXT
100
AcDbEntity
8
LABEL
100
AcDbText
10
725
20
1090
30
0
40
18
1
P03-U01-M16-R 1456.00 90/90
7
STANDARD
0
LINE
100
AcDbEntity
8
MARK
100
AcDbLine
10
2931
20
1080
30
0
11
2931
21
1160
31
0
0
TEXT
100
AcDbEntity
8
LABEL
100
AcDbText
10
2185
20
1090
30
0
40
18
1
P03-U02-M16-R 1456.00 90/90
7
STANDARD
0
LINE
100
AcDbEntity
8
MARK
100
AcDbLine
10
4391
20
1080
30
0
11
4391
21
1160
31
0
0
TEXT
100
AcDbEntity
8
LABEL
100
AcDbText
10
3645
20
1090
30
0
40
18
1
P03-U03-M16-R 1456.00 90/90
7
STANDARD
0
LINE
100
AcDbEntity
8
MARK
100
AcDbLine
10
5851
20
1080
30
0
11
5851
21
1160
31
0
0
TEXT
100
AcDbEntity
8
LABEL
100
AcDbText
10
5105
20
1090
30
0
40
18
1
P03-U01-M20-R 1456.00 90/90
7
STANDARD
0
LWPOLYLINE
100
AcDbEntity
8
OUTLINE
100
AcDbPolyline
90
4
70
1
10
0
20
1200
10
6000
20
1200
10
6000
20
1280
10
0
20
1280
0
TEXT
100
AcDbEntity
8
LABEL
100
AcDbText
10
0
20
1178
30
0
40
18
1
COMPRA-DEMO_CORREDERA_60-ACERO-HOJA-CORREDERA stock 6000.00
7
STANDARD
0
LINE
100
AcDbEntity
8
MARK
100
AcDbLine
10
15
20
1200
30
0
11
15
21
1280
31
0
0
LINE
100
AcDbEntity
8
MARK
100
AcDbLine
10
1471
20
1200
30
0
11
1471
21
1280
31
0
0
TEXT
100
AcDbEntity
8
LABEL
100
AcDbText
10
725
20
1210
30
0
40
18
1
P03-U02-M20-R 1456.00 90/90
7
STANDARD
0
LINE
100
AcDbEntity
8
MARK
100
AcDbLine
10
2931
20
1200
30
0
11
2931
21
1280
31
0
0
TEXT
100
AcDbEntity
8
LABEL
100
AcDbText
10
2185
20
1210
30
0
40
18
1
P03-U03-M20-R 1456.00 90/90
7
STANDARD
0
LWPOLYLINE
100
AcDbEntity
8
OUTLINE
100
AcDbPolyline
90
4
70
1
10
0
20
1320
10
6000
20
1320
10
6000
20
1400
10
0
20
1400
0
TEXT
100
AcDbEntity
8
LABEL
100
AcDbText
10
0
20
1298
30
0
40
18
1
COMPRA-DEMO_CORREDERA_60-ACERO-MARCO stock 6000.00
7
STANDARD
0
LINE
100
AcDbEntity
8
MARK
100
AcDbLine
10
15
20
1320
30
0
11
15
21
1400
31
0
0
LINE
100
AcDbEntity
8
MARK
100
AcDbLine
10
2991
20
1320
30
0
11
2991
21
1400
31
0
0
TEXT
100
AcDbEntity
8
LABEL
100
AcDbText
10
1485
20
1330
30
0
40
18
1
P03-U01-M01-R 2976.00 90/90
7
STANDARD
0
LINE
100
AcDbEntity
8
MARK
100
AcDbLine
10
5971
20
1320
30
0
11
5971
21
1400
31
0
0
TEXT
100
AcDbEntity
8
LABEL
100
AcDbText
10
4465
20
1330
30
0
40
18
1
P03-U02-M01-R 2976.00 90/90
7
STANDARD
0
LWPOLYLINE
100
AcDbEntity
8
OUTLINE
100
AcDbPolyline
90
4
70
1
10
0
20
1440
10
6000
20
1440
10
6000
20
1520
10
0
20
1520
0
TEXT
100
AcDbEntity
8
LABEL
100
AcDbText
10
0
20
1418
30
0
40
18
1
COMPRA-DEMO_CORREDERA_60-ACERO-MARCO stock 6000.00
7
STANDARD
0
LINE
100
AcDbEntity
8
MARK
100
AcDbLine
10
15
20
1440
30
0
11
15
21
1520
31
0
0
LINE
100
AcDbEntity
8
MARK
100
AcDbLine
10
2991
20
1440
30
0
11
2991
21
1520
31
0
0
TEXT
100
AcDbEntity
8
LABEL
100
AcDbText
10
1485
20
1450
30
0
40
18
1
P03-U03-M01-R 2976.00 90/90
7
STANDARD
0
LINE
100
AcDbEntity
8
MARK
100
AcDbLine
10
5971
20
1440
30
0
11
5971
21
1520
31
0
0
TEXT
100
AcDbEntity
8
LABEL
100
AcDbText
10
4465
20
1450
30
0
40
18
1
P03-U01-M04-R 2976.00 90/90
7
STANDARD
0
LWPOLYLINE
100
AcDbEntity
8
OUTLINE
100
AcDbPolyline
90
4
70
1
10
0
20
1560
10
6000
20
1560
10
6000
20
1640
10
0
20
1640
0
TEXT
100
AcDbEntity
8
LABEL
100
AcDbText
10
0
20
1538
30
0
40
18
1
COMPRA-DEMO_CORREDERA_60-ACERO-MARCO stock 6000.00
7
STANDARD
0
LINE
100
AcDbEntity
8
MARK
100
AcDbLine
10
15
20
1560
30
0
11
15
21
1640
31
0
0
LINE
100
AcDbEntity
8
MARK
100
AcDbLine
10
2991
20
1560
30
0
11
2991
21
1640
31
0
0
TEXT
100
AcDbEntity
8
LABEL
100
AcDbText
10
1485
20
1570
30
0
40
18
1
P03-U02-M04-R 2976.00 90/90
7
STANDARD
0
LINE
100
AcDbEntity
8
MARK
100
AcDbLine
10
5971
20
1560
30
0
11
5971
21
1640
31
0
0
TEXT
100
AcDbEntity
8
LABEL
100
AcDbText
10
4465
20
1570
30
0
40
18
1
P03-U03-M04-R 2976.00 90/90
7
STANDARD
0
LWPOLYLINE
100
AcDbEntity
8
OUTLINE
100
AcDbPolyline
90
4
70
1
10
0
20
1680
10
6000
20
1680
10
6000
20
1760
10
0
20
1760
0
TEXT
100
AcDbEntity
8
LABEL
100
AcDbText
10
0
20
1658
30
0
40
18
1
COMPRA-DEMO_CORREDERA_60-ACERO-MARCO stock 6000.00
7
STANDARD
0
LINE
100
AcDbEntity
8
MARK
100
AcDbLine
10
15
20
1680
30
0
11
15
21
1760
31
0
0
LINE
100
AcDbEntity
8
MARK
100
AcDbLine
10
2391
20
1680
30
0
11
2391
21
1760
31
0
0
TEXT
100
AcDbEntity
8
LABEL
100
AcDbText
10
1185
20
1690
30
0
40
18
1
P03-U01-M02-R 2376.00 90/90
7
STANDARD
0
LINE
100
AcDbEntity
8
MARK
100
AcDbLine
10
4771
20
1680
30
0
11
4771
21
1760
31
0
0
TEXT
100
AcDbEntity
8
LABEL
100
AcDbText
10
3565
20
1690
30
0
40
18
1
P03-U02-M02-R 2376.00 90/90
7
STANDARD
0
LWPOLYLINE
100
AcDbEntity
8
OUTLINE
100
AcDbPolyline
90
4
70
1
10
0
20
1800
10
6000
20
1800
10
6000
20
1880
10
0
20
1880
0
TEXT
100
AcDbEntity
8
LABEL
100
AcDbText
10
0
20
1778
30
0
40
18
1
COMPRA-DEMO_CORREDERA_60-ACERO-MARCO stock 6000.00
7
STANDARD
0
LINE
100
AcDbEntity
8
MARK
100
AcDbLine
10
15
20
1800
30
0
11
15
21
1880
31
0
0
LINE
100
AcDbEntity
8
MARK
100
AcDbLine
10
2391
20
1800
30
0
11
2391
21
1880
31
0
0
TEXT
100
AcDbEntity
8
LABEL
100
AcDbText
10
1185
20
1810
30
0
40
18
1
P03-U03-M02-R 2376.00 90/90
7
STANDARD
0
LINE
100
AcDbEntity
8
MARK
100
AcDbLine
10
4771
20
1800
30
0
11
4771
21
1880
31
0
0
TEXT
100
AcDbEntity
8
LABEL
100
AcDbText
10
3565
20
1810
30
0
40
18
1
P03-U01-M03-R 2376.00 90/90
7
STANDARD
0
LWPOLYLINE
100
AcDbEntity
8
OUTLINE
100
AcDbPolyline
90
4
70
1
10
0
20
1920
10
6000
20
1920
10
6000
20
2000
10
0
20
2000
0
TEXT
100
AcDbEntity
8
LABEL
100
AcDbText
10
0
20
1898
30
0
40
18
1
COMPRA-DEMO_CORREDERA_60-ACERO-MARCO stock 6000.00
7
STANDARD
0
LINE
100
AcDbEntity
8
MARK
100
AcDbLine
10
15
20
1920
30
0
11
15
21
2000
31
0
0
LINE
100
AcDbEntity
8
MARK
100
AcDbLine
10
2391
20
1920
30
0
11
2391
21
2000
31
0
0
TEXT
100
AcDbEntity
8
LABEL
100
AcDbText
10
1185
20
1930
30
0
40
18
1
P03-U02-M03-R 2376.00 90/90
7
STANDARD
0
LINE
100
AcDbEntity
8
MARK
100
AcDbLine
10
4771
20
1920
30
0
11
4771
21
2000
31
0
0
TEXT
100
AcDbEntity
8
LABEL
100
AcDbText
10
3565
20
1930
30
0
40
18
1
P03-U03-M03-R 2376.00 90/90
7
STANDARD
0
LWPOLYLINE
100
AcDbEntity
8
OUTLINE
100
AcDbPolyline
90
4
70
1
10
0
20
2040
10
6000
20
2040
10
6000
20
2120
10
0
20
2120
0
TEXT
100
AcDbEntity
8
LABEL
100
AcDbText
10
0
20
2018
30
0
40
18
1
COMPRA-DEMO_CORREDERA_60-ENCUENTRO stock 6000.00
7
STANDARD
0
LINE
100
AcDbEntity
8
MARK
100
AcDbLine
10
15
20
2040
30
0
11
15
21
2120
31
0
0
LINE
100
AcDbEntity
8
MARK
100
AcDbLine
10
2271
20
2040
30
0
11
2271
21
2120
31
0
0
TEXT
100
AcDbEntity
8
LABEL
100
AcDbText
10
1125
20
2050
30
0
40
18
1
P03-U01-M08 2256.00 90.0/90.0
7
STANDARD
0
LINE
100
AcDbEntity
8
MARK
100
AcDbLine
10
4531
20
2040
30
0
11
4531
21
2120
31
0
0
TEXT
100
AcDbEntity
8
LABEL
100
AcDbText
10
3385
20
2050
30
0
40
18
1
P03-U02-M08 2256.00 90.0/90.0
7
STANDARD
0
LWPOLYLINE
100
AcDbEntity
8
OUTLINE
100
AcDbPolyline
90
4
70
1
10
0
20
2160
10
6000
20
2160
10
6000
20
2240
10
0
20
2240
0
TEXT
100
AcDbEntity
8
LABEL
100
AcDbText
10
0
20
2138
30
0
40
18
1
COMPRA-DEMO_CORREDERA_60-ENCUENTRO stock 6000.00
7
STANDARD
0
LINE
100
AcDbEntity
8
MARK
100
AcDbLine
10
15
20
2160
30
0
11
15
21
2240
31
0
0
LINE
100
AcDbEntity
8
MARK
100
AcDbLine
10
2271
20
2160
30
0
11
2271
21
2240
31
0
0
TEXT
100
AcDbEntity
8
LABEL
100
AcDbText
10
1125
20
2170
30
0
40
18
1
P03-U03-M08 2256.00 90.0/90.0
7
STANDARD
0
LINE
100
AcDbEntity
8
MARK
100
AcDbLine
10
4531
20
2160
30
0
11
4531
21
2240
31
0
0
TEXT
100
AcDbEntity
8
LABEL
100
AcDbText
10
3385
20
2170
30
0
40
18
1
P03-U01-M17 2256.00 90.0/90.0
7
STANDARD
0
LWPOLYLINE
100
AcDbEntity
8
OUTLINE
100
AcDbPolyline
90
4
70
1
10
0
20
2280
10
6000
20
2280
10
6000
20
2360
10
0
20
2360
0
TEXT
100
AcDbEntity
8
LABEL
100
AcDbText
10
0
20
2258
30
0
40
18
1
COMPRA-DEMO_CORREDERA_60-ENCUENTRO stock 6000.00
7
STANDARD
0
LINE
100
AcDbEntity
8
MARK
100
AcDbLine
10
15
20
2280
30
0
11
15
21
2360
31
0
0
LINE
100
AcDbEntity
8
MARK
100
AcDbLine
10
2271
20
2280
30
0
11
2271
21
2360
31
0
0
TEXT
100
AcDbEntity
8
LABEL
100
AcDbText
10
1125
20
2290
30
0
40
18
1
P03-U02-M17 2256.00 90.0/90.0
7
STANDARD
0
LINE
100
AcDbEntity
8
MARK
100
AcDbLine
10
4531
20
2280
30
0
11
4531
21
2360
31
0
0
TEXT
100
AcDbEntity
8
LABEL
100
AcDbText
10
3385
20
2290
30
0
40
18
1
P03-U03-M17 2256.00 90.0/90.0
7
STANDARD
0
LWPOLYLINE
100
AcDbEntity
8
OUTLINE
100
AcDbPolyline
90
4
70
1
10
0
20
2400
10
6000
20
2400
10
6000
20
2480
10
0
20
2480
0
TEXT
100
AcDbEntity
8
LABEL
100
AcDbText
10
0
20
2378
30
0
40
18
1
COMPRA-DEMO_CORREDERA_60-HOJA-CORREDERA stock 6000.00
7
STANDARD
0
LINE
100
AcDbEntity
8
MARK
100
AcDbLine
10
15
20
2400
30
0
11
15
21
2480
31
0
0
LINE
100
AcDbEntity
8
MARK
100
AcDbLine
10
2271
20
2400
30
0
11
2271
21
2480
31
0
0
TEXT
100
AcDbEntity
8
LABEL
100
AcDbText
10
1125
20
2410
30
0
40
18
1
P03-U01-M09 2256.00 90.0/90.0
7
STANDARD
0
LINE
100
AcDbEntity
8
MARK
100
AcDbLine
10
4531
20
2400
30
0
11
4531
21
2480
31
0
0
TEXT
100
AcDbEntity
8
LABEL
100
AcDbText
10
3385
20
2410
30
0
40
18
1
P03-U02-M09 2256.00 90.0/90.0
7
STANDARD
0
LWPOLYLINE
100
AcDbEntity
8
OUTLINE
100
AcDbPolyline
90
4
70
1
10
0
20
2520
10
6000
20
2520
10
6000
20
2600
10
0
20
2600
0
TEXT
100
AcDbEntity
8
LABEL
100
AcDbText
10
0
20
2498
30
0
40
18
1
COMPRA-DEMO_CORREDERA_60-HOJA-CORREDERA stock 6000.00
7
STANDARD
0
LINE
100
AcDbEntity
8
MARK
100
AcDbLine
10
15
20
2520
30
0
11
15
21
2600
31
0
0
LINE
100
AcDbEntity
8
MARK
100
AcDbLine
10
2271
20
2520
30
0
11
2271
21
2600
31
0
0
TEXT
100
AcDbEntity
8
LABEL
100
AcDbText
10
1125
20
2530
30
0
40
18
1
P03-U03-M09 2256.00 90.0/90.0
7
STANDARD
0
LINE
100
AcDbEntity
8
MARK
100
AcDbLine
10
4531
20
2520
30
0
11
4531
21
2600
31
0
0
TEXT
100
AcDbEntity
8
LABEL
100
AcDbText
10
3385
20
2530
30
0
40
18
1
P03-U01-M10 2256.00 90.0/90.0
7
STANDARD
0
LWPOLYLINE
100
AcDbEntity
8
OUTLINE
100
AcDbPolyline
90
4
70
1
10
0
20
2640
10
6000
20
2640
10
6000
20
2720
10
0
20
2720
0
TEXT
100
AcDbEntity
8
LABEL
100
AcDbText
10
0
20
2618
30
0
40
18
1
COMPRA-DEMO_CORREDERA_60-HOJA-CORREDERA stock 6000.00
7
STANDARD
0
LINE
100
AcDbEntity
8
MARK
100
AcDbLine
10
15
20
2640
30
0
11
15
21
2720
31
0
0
LINE
100
AcDbEntity
8
MARK
100
AcDbLine
10
2271
20
2640
30
0
11
2271
21
2720
31
0
0
TEXT
100
AcDbEntity
8
LABEL
100
AcDbText
10
1125
20
2650
30
0
40
18
1
P03-U02-M10 2256.00 90.0/90.0
7
STANDARD
0
LINE
100
AcDbEntity
8
MARK
100
AcDbLine
10
4531
20
2640
30
0
11
4531
21
2720
31
0
0
TEXT
100
AcDbEntity
8
LABEL
100
AcDbText
10
3385
20
2650
30
0
40
18
1
P03-U03-M10 2256.00 90.0/90.0
7
STANDARD
0
LWPOLYLINE
100
AcDbEntity
8
OUTLINE
100
AcDbPolyline
90
4
70
1
10
0
20
2760
10
6000
20
2760
10
6000
20
2840
10
0
20
2840
0
TEXT
100
AcDbEntity
8
LABEL
100
AcDbText
10
0
20
2738
30
0
40
18
1
COMPRA-DEMO_CORREDERA_60-HOJA-CORREDERA stock 6000.00
7
STANDARD
0
LINE
100
AcDbEntity
8
MARK
100
AcDbLine
10
15
20
2760
30
0
11
15
21
2840
31
0
0
LINE
100
AcDbEntity
8
MARK
100
AcDbLine
10
2271
20
2760
30
0
11
2271
21
2840
31
0
0
TEXT
100
AcDbEntity
8
LABEL
100
AcDbText
10
1125
20
2770
30
0
40
18
1
P03-U01-M18 2256.00 90.0/90.0
7
STANDARD
0
LINE
100
AcDbEntity
8
MARK
100
AcDbLine
10
4531
20
2760
30
0
11
4531
21
2840
31
0
0
TEXT
100
AcDbEntity
8
LABEL
100
AcDbText
10
3385
20
2770
30
0
40
18
1
P03-U02-M18 2256.00 90.0/90.0
7
STANDARD
0
LWPOLYLINE
100
AcDbEntity
8
OUTLINE
100
AcDbPolyline
90
4
70
1
10
0
20
2880
10
6000
20
2880
10
6000
20
2960
10
0
20
2960
0
TEXT
100
AcDbEntity
8
LABEL
100
AcDbText
10
0
20
2858
30
0
40
18
1
COMPRA-DEMO_CORREDERA_60-HOJA-CORREDERA stock 6000.00
7
STANDARD
0
LINE
100
AcDbEntity
8
MARK
100
AcDbLine
10
15
20
2880
30
0
11
15
21
2960
31
0
0
LINE
100
AcDbEntity
8
MARK
100
AcDbLine
10
2271
20
2880
30
0
11
2271
21
2960
31
0
0
TEXT
100
AcDbEntity
8
LABEL
100
AcDbText
10
1125
20
2890
30
0
40
18
1
P03-U03-M18 2256.00 90.0/90.0
7
STANDARD
0
LINE
100
AcDbEntity
8
MARK
100
AcDbLine
10
4531
20
2880
30
0
11
4531
21
2960
31
0
0
TEXT
100
AcDbEntity
8
LABEL
100
AcDbText
10
3385
20
2890
30
0
40
18
1
P03-U01-M19 2256.00 90.0/90.0
7
STANDARD
0
LWPOLYLINE
100
AcDbEntity
8
OUTLINE
100
AcDbPolyline
90
4
70
1
10
0
20
3000
10
6000
20
3000
10
6000
20
3080
10
0
20
3080
0
TEXT
100
AcDbEntity
8
LABEL
100
AcDbText
10
0
20
2978
30
0
40
18
1
COMPRA-DEMO_CORREDERA_60-HOJA-CORREDERA stock 6000.00
7
STANDARD
0
LINE
100
AcDbEntity
8
MARK
100
AcDbLine
10
15
20
3000
30
0
11
15
21
3080
31
0
0
LINE
100
AcDbEntity
8
MARK
100
AcDbLine
10
2271
20
3000
30
0
11
2271
21
3080
31
0
0
TEXT
100
AcDbEntity
8
LABEL
100
AcDbText
10
1125
20
3010
30
0
40
18
1
P03-U02-M19 2256.00 90.0/90.0
7
STANDARD
0
LINE
100
AcDbEntity
8
MARK
100
AcDbLine
10
4531
20
3000
30
0
11
4531
21
3080
31
0
0
TEXT
100
AcDbEntity
8
LABEL
100
AcDbText
10
3385
20
3010
30
0
40
18
1
P03-U03-M19 2256.00 90.0/90.0
7
STANDARD
0
LWPOLYLINE
100
AcDbEntity
8
OUTLINE
100
AcDbPolyline
90
4
70
1
10
0
20
3120
10
6000
20
3120
10
6000
20
3200
10
0
20
3200
0
TEXT
100
AcDbEntity
8
LABEL
100
AcDbText
10
0
20
3098
30
0
40
18
1
COMPRA-DEMO_CORREDERA_60-HOJA-CORREDERA stock 6000.00
7
STANDARD
0
LINE
100
AcDbEntity
8
MARK
100
AcDbLine
10
15
20
3120
30
0
11
15
21
3200
31
0
0
LINE
100
AcDbEntity
8
MARK
100
AcDbLine
10
1481
20
3120
30
0
11
1481
21
3200
31
0
0
TEXT
100
AcDbEntity
8
LABEL
100
AcDbText
10
730
20
3130
30
0
40
18
1
P03-U01-M07 1466.00 90.0/90.0
7
STANDARD
0
LINE
100
AcDbEntity
8
MARK
100
AcDbLine
10
2951
20
3120
30
0
11
2951
21
3200
31
0
0
TEXT
100
AcDbEntity
8
LABEL
100
AcDbText
10
2200
20
3130
30
0
40
18
1
P03-U02-M07 1466.00 90.0/90.0
7
STANDARD
0
LINE
100
AcDbEntity
8
MARK
100
AcDbLine
10
4421
20
3120
30
0
11
4421
21
3200
31
0
0
TEXT
100
AcDbEntity
8
LABEL
100
AcDbText
10
3670
20
3130
30
0
40
18
1
P03-U03-M07 1466.00 90.0/90.0
7
STANDARD
0
LINE
100
AcDbEntity
8
MARK
100
AcDbLine
10
5891
20
3120
30
0
11
5891
21
3200
31
0
0
TEXT
100
AcDbEntity
8
LABEL
100
AcDbText
10
5140
20
3130
30
0
40
18
1
P03-U01-M11 1466.00 90.0/90.0
7
STANDARD
0
LWPOLYLINE
100
AcDbEntity
8
OUTLINE
100
AcDbPolyline
90
4
70
1
10
0
20
3240
10
6000
20
3240
10
6000
20
3320
10
0
20
3320
0
TEXT
100
AcDbEntity
8
LABEL
100
AcDbText
10
0
20
3218
30
0
40
18
1
COMPRA-DEMO_CORREDERA_60-HOJA-CORREDERA stock 6000.00
7
STANDARD
0
LINE
100
AcDbEntity
8
MARK
100
AcDbLine
10
15
20
3240
30
0
11
15
21
3320
31
0
0
LINE
100
AcDbEntity
8
MARK
100
AcDbLine
10
1481
20
3240
30
0
11
1481
21
3320
31
0
0
TEXT
100
AcDbEntity
8
LABEL
100
AcDbText
10
730
20
3250
30
0
40
18
1
P03-U02-M11 1466.00 90.0/90.0
7
STANDARD
0
LINE
100
AcDbEntity
8
MARK
100
AcDbLine
10
2951
20
3240
30
0
11
2951
21
3320
31
0
0
TEXT
100
AcDbEntity
8
LABEL
100
AcDbText
10
2200
20
3250
30
0
40
18
1
P03-U03-M11 1466.00 90.0/90.0
7
STANDARD
0
LINE
100
AcDbEntity
8
MARK
100
AcDbLine
10
4421
20
3240
30
0
11
4421
21
3320
31
0
0
TEXT
100
AcDbEntity
8
LABEL
100
AcDbText
10
3670
20
3250
30
0
40
18
1
P03-U01-M16 1466.00 90.0/90.0
7
STANDARD
0
LINE
100
AcDbEntity
8
MARK
100
AcDbLine
10
5891
20
3240
30
0
11
5891
21
3320
31
0
0
TEXT
100
AcDbEntity
8
LABEL
100
AcDbText
10
5140
20
3250
30
0
40
18
1
P03-U02-M16 1466.00 90.0/90.0
7
STANDARD
0
LWPOLYLINE
100
AcDbEntity
8
OUTLINE
100
AcDbPolyline
90
4
70
1
10
0
20
3360
10
6000
20
3360
10
6000
20
3440
10
0
20
3440
0
TEXT
100
AcDbEntity
8
LABEL
100
AcDbText
10
0
20
3338
30
0
40
18
1
COMPRA-DEMO_CORREDERA_60-HOJA-CORREDERA stock 6000.00
7
STANDARD
0
LINE
100
AcDbEntity
8
MARK
100
AcDbLine
10
15
20
3360
30
0
11
15
21
3440
31
0
0
LINE
100
AcDbEntity
8
MARK
100
AcDbLine
10
1481
20
3360
30
0
11
1481
21
3440
31
0
0
TEXT
100
AcDbEntity
8
LABEL
100
AcDbText
10
730
20
3370
30
0
40
18
1
P03-U03-M16 1466.00 90.0/90.0
7
STANDARD
0
LINE
100
AcDbEntity
8
MARK
100
AcDbLine
10
2951
20
3360
30
0
11
2951
21
3440
31
0
0
TEXT
100
AcDbEntity
8
LABEL
100
AcDbText
10
2200
20
3370
30
0
40
18
1
P03-U01-M20 1466.00 90.0/90.0
7
STANDARD
0
LINE
100
AcDbEntity
8
MARK
100
AcDbLine
10
4421
20
3360
30
0
11
4421
21
3440
31
0
0
TEXT
100
AcDbEntity
8
LABEL
100
AcDbText
10
3670
20
3370
30
0
40
18
1
P03-U02-M20 1466.00 90.0/90.0
7
STANDARD
0
LINE
100
AcDbEntity
8
MARK
100
AcDbLine
10
5891
20
3360
30
0
11
5891
21
3440
31
0
0
TEXT
100
AcDbEntity
8
LABEL
100
AcDbText
10
5140
20
3370
30
0
40
18
1
P03-U03-M20 1466.00 90.0/90.0
7
STANDARD
0
LWPOLYLINE
100
AcDbEntity
8
OUTLINE
100
AcDbPolyline
90
4
70
1
10
0
20
3480
10
6000
20
3480
10
6000
20
3560
10
0
20
3560
0
TEXT
100
AcDbEntity
8
LABEL
100
AcDbText
10
0
20
3458
30
0
40
18
1
COMPRA-DEMO_CORREDERA_60-JQ-10 stock 6000.00
7
STANDARD
0
LINE
100
AcDbEntity
8
MARK
100
AcDbLine
10
15
20
3480
30
0
11
15
21
3560
31
0
0
LINE
100
AcDbEntity
8
MARK
100
AcDbLine
10
2144
20
3480
30
0
11
2144
21
3560
31
0
0
TEXT
100
AcDbEntity
8
LABEL
100
AcDbText
10
1061.500
20
3490
30
0
40
18
1
P03-U01-M13 2129.00 90.0/90.0
7
STANDARD
0
LINE
100
AcDbEntity
8
MARK
100
AcDbLine
10
4277
20
3480
30
0
11
4277
21
3560
31
0
0
TEXT
100
AcDbEntity
8
LABEL
100
AcDbText
10
3194.500
20
3490
30
0
40
18
1
P03-U02-M13 2129.00 90.0/90.0
7
STANDARD
0
LINE
100
AcDbEntity
8
MARK
100
AcDbLine
10
5620
20
3480
30
0
11
5620
21
3560
31
0
0
TEXT
100
AcDbEntity
8
LABEL
100
AcDbText
10
4932.500
20
3490
30
0
40
18
1
P03-U01-M12 1339.00 90.0/90.0
7
STANDARD
0
LWPOLYLINE
100
AcDbEntity
8
OUTLINE
100
AcDbPolyline
90
4
70
1
10
0
20
3600
10
6000
20
3600
10
6000
20
3680
10
0
20
3680
0
TEXT
100
AcDbEntity
8
LABEL
100
AcDbText
10
0
20
3578
30
0
40
18
1
COMPRA-DEMO_CORREDERA_60-JQ-10 stock 6000.00
7
STANDARD
0
LINE
100
AcDbEntity
8
MARK
100
AcDbLine
10
15
20
3600
30
0
11
15
21
3680
31
0
0
LINE
100
AcDbEntity
8
MARK
100
AcDbLine
10
2144
20
3600
30
0
11
2144
21
3680
31
0
0
TEXT
100
AcDbEntity
8
LABEL
100
AcDbText
10
1061.500
20
3610
30
0
40
18
1
P03-U03-M13 2129.00 90.0/90.0
7
STANDARD
0
LINE
100
AcDbEntity
8
MARK
100
AcDbLine
10
4277
20
3600
30
0
11
4277
21
3680
31
0
0
TEXT
100
AcDbEntity
8
LABEL
100
AcDbText
10
3194.500
20
3610
30
0
40
18
1
P03-U01-M14 2129.00 90.0/90.0
7
STANDARD
0
LINE
100
AcDbEntity
8
MARK
100
AcDbLine
10
5620
20
3600
30
0
11
5620
21
3680
31
0
0
TEXT
100
AcDbEntity
8
LABEL
100
AcDbText
10
4932.500
20
3610
30
0
40
18
1
P03-U02-M12 1339.00 90.0/90.0
7
STANDARD
0
LWPOLYLINE
100
AcDbEntity
8
OUTLINE
100
AcDbPolyline
90
4
70
1
10
0
20
3720
10
6000
20
3720
10
6000
20
3800
10
0
20
3800
0
TEXT
100
AcDbEntity
8
LABEL
100
AcDbText
10
0
20
3698
30
0
40
18
1
COMPRA-DEMO_CORREDERA_60-JQ-10 stock 6000.00
7
STANDARD
0
LINE
100
AcDbEntity
8
MARK
100
AcDbLine
10
15
20
3720
30
0
11
15
21
3800
31
0
0
LINE
100
AcDbEntity
8
MARK
100
AcDbLine
10
2144
20
3720
30
0
11
2144
21
3800
31
0
0
TEXT
100
AcDbEntity
8
LABEL
100
AcDbText
10
1061.500
20
3730
30
0
40
18
1
P03-U02-M14 2129.00 90.0/90.0
7
STANDARD
0
LINE
100
AcDbEntity
8
MARK
100
AcDbLine
10
4277
20
3720
30
0
11
4277
21
3800
31
0
0
TEXT
100
AcDbEntity
8
LABEL
100
AcDbText
10
3194.500
20
3730
30
0
40
18
1
P03-U03-M14 2129.00 90.0/90.0
7
STANDARD
0
LINE
100
AcDbEntity
8
MARK
100
AcDbLine
10
5620
20
3720
30
0
11
5620
21
3800
31
0
0
TEXT
100
AcDbEntity
8
LABEL
100
AcDbText
10
4932.500
20
3730
30
0
40
18
1
P03-U03-M12 1339.00 90.0/90.0
7
STANDARD
0
LWPOLYLINE
100
AcDbEntity
8
OUTLINE
100
AcDbPolyline
90
4
70
1
10
0
20
3840
10
6000
20
3840
10
6000
20
3920
10
0
20
3920
0
TEXT
100
AcDbEntity
8
LABEL
100
AcDbText
10
0
20
3818
30
0
40
18
1
COMPRA-DEMO_CORREDERA_60-JQ-10 stock 6000.00
7
STANDARD
0
LINE
100
AcDbEntity
8
MARK
100
AcDbLine
10
15
20
3840
30
0
11
15
21
3920
31
0
0
LINE
100
AcDbEntity
8
MARK
100
AcDbLine
10
2144
20
3840
30
0
11
2144
21
3920
31
0
0
TEXT
100
AcDbEntity
8
LABEL
100
AcDbText
10
1061.500
20
3850
30
0
40
18
1
P03-U01-M22 2129.00 90.0/90.0
7
STANDARD
0
LINE
100
AcDbEntity
8
MARK
100
AcDbLine
10
4277
20
3840
30
0
11
4277
21
3920
31
0
0
TEXT
100
AcDbEntity
8
LABEL
100
AcDbText
10
3194.500
20
3850
30
0
40
18
1
P03-U02-M22 2129.00 90.0/90.0
7
STANDARD
0
LINE
100
AcDbEntity
8
MARK
100
AcDbLine
10
5620
20
3840
30
0
11
5620
21
3920
31
0
0
TEXT
100
AcDbEntity
8
LABEL
100
AcDbText
10
4932.500
20
3850
30
0
40
18
1
P03-U01-M15 1339.00 90.0/90.0
7
STANDARD
0
LWPOLYLINE
100
AcDbEntity
8
OUTLINE
100
AcDbPolyline
90
4
70
1
10
0
20
3960
10
6000
20
3960
10
6000
20
4040
10
0
20
4040
0
TEXT
100
AcDbEntity
8
LABEL
100
AcDbText
10
0
20
3938
30
0
40
18
1
COMPRA-DEMO_CORREDERA_60-JQ-10 stock 6000.00
7
STANDARD
0
LINE
100
AcDbEntity
8
MARK
100
AcDbLine
10
15
20
3960
30
0
11
15
21
4040
31
0
0
LINE
100
AcDbEntity
8
MARK
100
AcDbLine
10
2144
20
3960
30
0
11
2144
21
4040
31
0
0
TEXT
100
AcDbEntity
8
LABEL
100
AcDbText
10
1061.500
20
3970
30
0
40
18
1
P03-U03-M22 2129.00 90.0/90.0
7
STANDARD
0
LINE
100
AcDbEntity
8
MARK
100
AcDbLine
10
4277
20
3960
30
0
11
4277
21
4040
31
0
0
TEXT
100
AcDbEntity
8
LABEL
100
AcDbText
10
3194.500
20
3970
30
0
40
18
1
P03-U01-M23 2129.00 90.0/90.0
7
STANDARD
0
LINE
100
AcDbEntity
8
MARK
100
AcDbLine
10
5620
20
3960
30
0
11
5620
21
4040
31
0
0
TEXT
100
AcDbEntity
8
LABEL
100
AcDbText
10
4932.500
20
3970
30
0
40
18
1
P03-U02-M15 1339.00 90.0/90.0
7
STANDARD
0
LWPOLYLINE
100
AcDbEntity
8
OUTLINE
100
AcDbPolyline
90
4
70
1
10
0
20
4080
10
6000
20
4080
10
6000
20
4160
10
0
20
4160
0
TEXT
100
AcDbEntity
8
LABEL
100
AcDbText
10
0
20
4058
30
0
40
18
1
COMPRA-DEMO_CORREDERA_60-JQ-10 stock 6000.00
7
STANDARD
0
LINE
100
AcDbEntity
8
MARK
100
AcDbLine
10
15
20
4080
30
0
11
15
21
4160
31
0
0
LINE
100
AcDbEntity
8
MARK
100
AcDbLine
10
2144
20
4080
30
0
11
2144
21
4160
31
0
0
TEXT
100
AcDbEntity
8
LABEL
100
AcDbText
10
1061.500
20
4090
30
0
40
18
1
P03-U02-M23 2129.00 90.0/90.0
7
STANDARD
0
LINE
100
AcDbEntity
8
MARK
100
AcDbLine
10
4277
20
4080
30
0
11
4277
21
4160
31
0
0
TEXT
100
AcDbEntity
8
LABEL
100
AcDbText
10
3194.500
20
4090
30
0
40
18
1
P03-U03-M23 2129.00 90.0/90.0
7
STANDARD
0
LINE
100
AcDbEntity
8
MARK
100
AcDbLine
10
5620
20
4080
30
0
11
5620
21
4160
31
0
0
TEXT
100
AcDbEntity
8
LABEL
100
AcDbText
10
4932.500
20
4090
30
0
40
18
1
P03-U03-M15 1339.00 90.0/90.0
7
STANDARD
0
LWPOLYLINE
100
AcDbEntity
8
OUTLINE
100
AcDbPolyline
90
4
70
1
10
0
20
4200
10
6000
20
4200
10
6000
20
4280
10
0
20
4280
0
TEXT
100
AcDbEntity
8
LABEL
100
AcDbText
10
0
20
4178
30
0
40
18
1
COMPRA-DEMO_CORREDERA_60-JQ-10 stock 6000.00
7
STANDARD
0
LINE
100
AcDbEntity
8
MARK
100
AcDbLine
10
15
20
4200
30
0
11
15
21
4280
31
0
0
LINE
100
AcDbEntity
8
MARK
100
AcDbLine
10
1354
20
4200
30
0
11
1354
21
4280
31
0
0
TEXT
100
AcDbEntity
8
LABEL
100
AcDbText
10
666.500
20
4210
30
0
40
18
1
P03-U01-M21 1339.00 90.0/90.0
7
STANDARD
0
LINE
100
AcDbEntity
8
MARK
100
AcDbLine
10
2697
20
4200
30
0
11
2697
21
4280
31
0
0
TEXT
100
AcDbEntity
8
LABEL
100
AcDbText
10
2009.500
20
4210
30
0
40
18
1
P03-U02-M21 1339.00 90.0/90.0
7
STANDARD
0
LINE
100
AcDbEntity
8
MARK
100
AcDbLine
10
4040
20
4200
30
0
11
4040
21
4280
31
0
0
TEXT
100
AcDbEntity
8
LABEL
100
AcDbText
10
3352.500
20
4210
30
0
40
18
1
P03-U03-M21 1339.00 90.0/90.0
7
STANDARD
0
LINE
100
AcDbEntity
8
MARK
100
AcDbLine
10
5383
20
4200
30
0
11
5383
21
4280
31
0
0
TEXT
100
AcDbEntity
8
LABEL
100
AcDbText
10
4695.500
20
4210
30
0
40
18
1
P03-U01-M24 1339.00 90.0/90.0
7
STANDARD
0
LWPOLYLINE
100
AcDbEntity
8
OUTLINE
100
AcDbPolyline
90
4
70
1
10
0
20
4320
10
6000
20
4320
10
6000
20
4400
10
0
20
4400
0
TEXT
100
AcDbEntity
8
LABEL
100
AcDbText
10
0
20
4298
30
0
40
18
1
COMPRA-DEMO_CORREDERA_60-JQ-10 stock 6000.00
7
STANDARD
0
LINE
100
AcDbEntity
8
MARK
100
AcDbLine
10
15
20
4320
30
0
11
15
21
4400
31
0
0
LINE
100
AcDbEntity
8
MARK
100
AcDbLine
10
1354
20
4320
30
0
11
1354
21
4400
31
0
0
TEXT
100
AcDbEntity
8
LABEL
100
AcDbText
10
666.500
20
4330
30
0
40
18
1
P03-U02-M24 1339.00 90.0/90.0
7
STANDARD
0
LINE
100
AcDbEntity
8
MARK
100
AcDbLine
10
2697
20
4320
30
0
11
2697
21
4400
31
0
0
TEXT
100
AcDbEntity
8
LABEL
100
AcDbText
10
2009.500
20
4330
30
0
40
18
1
P03-U03-M24 1339.00 90.0/90.0
7
STANDARD
0
LWPOLYLINE
100
AcDbEntity
8
OUTLINE
100
AcDbPolyline
90
4
70
1
10
0
20
4440
10
6000
20
4440
10
6000
20
4520
10
0
20
4520
0
TEXT
100
AcDbEntity
8
LABEL
100
AcDbText
10
0
20
4418
30
0
40
18
1
COMPRA-DEMO_CORREDERA_60-MARCO stock 6000.00
7
STANDARD
0
LINE
100
AcDbEntity
8
MARK
100
AcDbLine
10
15
20
4440
30
0
11
15
21
4520
31
0
0
LINE
100
AcDbEntity
8
MARK
100
AcDbLine
10
3021
20
4440
30
0
11
3021
21
4520
31
0
0
TEXT
100
AcDbEntity
8
LABEL
100
AcDbText
10
1500
20
4450
30
0
40
18
1
P03-U01-M01 3006.00 45.0/45.0
7
STANDARD
0
LINE
100
AcDbEntity
8
MARK
100
AcDbLine
10
5431
20
4440
30
0
11
5431
21
4520
31
0
0
TEXT
100
AcDbEntity
8
LABEL
100
AcDbText
10
4210
20
4450
30
0
40
18
1
P03-U01-M02 2406.00 45.0/45.0
7
STANDARD
0
LWPOLYLINE
100
AcDbEntity
8
OUTLINE
100
AcDbPolyline
90
4
70
1
10
0
20
4560
10
6000
20
4560
10
6000
20
4640
10
0
20
4640
0
TEXT
100
AcDbEntity
8
LABEL
100
AcDbText
10
0
20
4538
30
0
40
18
1
COMPRA-DEMO_CORREDERA_60-MARCO stock 6000.00
7
STANDARD
0
LINE
100
AcDbEntity
8
MARK
100
AcDbLine
10
15
20
4560
30
0
11
15
21
4640
31
0
0
LINE
100
AcDbEntity
8
MARK
100
AcDbLine
10
3021
20
4560
30
0
11
3021
21
4640
31
0
0
TEXT
100
AcDbEntity
8
LABEL
100
AcDbText
10
1500
20
4570
30
0
40
18
1
P03-U02-M01 3006.00 45.0/45.0
7
STANDARD
0
LINE
100
AcDbEntity
8
MARK
100
AcDbLine
10
5431
20
4560
30
0
11
5431
21
4640
31
0
0
TEXT
100
AcDbEntity
8
LABEL
100
AcDbText
10
4210
20
4570
30
0
40
18
1
P03-U02-M02 2406.00 45.0/45.0
7
STANDARD
0
LWPOLYLINE
100
AcDbEntity
8
OUTLINE
100
AcDbPolyline
90
4
70
1
10
0
20
4680
10
6000
20
4680
10
6000
20
4760
10
0
20
4760
0
TEXT
100
AcDbEntity
8
LABEL
100
AcDbText
10
0
20
4658
30
0
40
18
1
COMPRA-DEMO_CORREDERA_60-MARCO stock 6000.00
7
STANDARD
0
LINE
100
AcDbEntity
8
MARK
100
AcDbLine
10
15
20
4680
30
0
11
15
21
4760
31
0
0
LINE
100
AcDbEntity
8
MARK
100
AcDbLine
10
3021
20
4680
30
0
11
3021
21
4760
31
0
0
TEXT
100
AcDbEntity
8
LABEL
100
AcDbText
10
1500
20
4690
30
0
40
18
1
P03-U03-M01 3006.00 45.0/45.0
7
STANDARD
0
LINE
100
AcDbEntity
8
MARK
100
AcDbLine
10
5431
20
4680
30
0
11
5431
21
4760
31
0
0
TEXT
100
AcDbEntity
8
LABEL
100
AcDbText
10
4210
20
4690
30
0
40
18
1
P03-U03-M02 2406.00 45.0/45.0
7
STANDARD
0
LWPOLYLINE
100
AcDbEntity
8
OUTLINE
100
AcDbPolyline
90
4
70
1
10
0
20
4800
10
6000
20
4800
10
6000
20
4880
10
0
20
4880
0
TEXT
100
AcDbEntity
8
LABEL
100
AcDbText
10
0
20
4778
30
0
40
18
1
COMPRA-DEMO_CORREDERA_60-MARCO stock 6000.00
7
STANDARD
0
LINE
100
AcDbEntity
8
MARK
100
AcDbLine
10
15
20
4800
30
0
11
15
21
4880
31
0
0
LINE
100
AcDbEntity
8
MARK
100
AcDbLine
10
3021
20
4800
30
0
11
3021
21
4880
31
0
0
TEXT
100
AcDbEntity
8
LABEL
100
AcDbText
10
1500
20
4810
30
0
40
18
1
P03-U01-M04 3006.00 45.0/45.0
7
STANDARD
0
LINE
100
AcDbEntity
8
MARK
100
AcDbLine
10
5431
20
4800
30
0
11
5431
21
4880
31
0
0
TEXT
100
AcDbEntity
8
LABEL
100
AcDbText
10
4210
20
4810
30
0
40
18
1
P03-U01-M03 2406.00 45.0/45.0
7
STANDARD
0
LWPOLYLINE
100
AcDbEntity
8
OUTLINE
100
AcDbPolyline
90
4
70
1
10
0
20
4920
10
6000
20
4920
10
6000
20
5000
10
0
20
5000
0
TEXT
100
AcDbEntity
8
LABEL
100
AcDbText
10
0
20
4898
30
0
40
18
1
COMPRA-DEMO_CORREDERA_60-MARCO stock 6000.00
7
STANDARD
0
LINE
100
AcDbEntity
8
MARK
100
AcDbLine
10
15
20
4920
30
0
11
15
21
5000
31
0
0
LINE
100
AcDbEntity
8
MARK
100
AcDbLine
10
3021
20
4920
30
0
11
3021
21
5000
31
0
0
TEXT
100
AcDbEntity
8
LABEL
100
AcDbText
10
1500
20
4930
30
0
40
18
1
P03-U02-M04 3006.00 45.0/45.0
7
STANDARD
0
LINE
100
AcDbEntity
8
MARK
100
AcDbLine
10
5431
20
4920
30
0
11
5431
21
5000
31
0
0
TEXT
100
AcDbEntity
8
LABEL
100
AcDbText
10
4210
20
4930
30
0
40
18
1
P03-U02-M03 2406.00 45.0/45.0
7
STANDARD
0
LWPOLYLINE
100
AcDbEntity
8
OUTLINE
100
AcDbPolyline
90
4
70
1
10
0
20
5040
10
6000
20
5040
10
6000
20
5120
10
0
20
5120
0
TEXT
100
AcDbEntity
8
LABEL
100
AcDbText
10
0
20
5018
30
0
40
18
1
COMPRA-DEMO_CORREDERA_60-MARCO stock 6000.00
7
STANDARD
0
LINE
100
AcDbEntity
8
MARK
100
AcDbLine
10
15
20
5040
30
0
11
15
21
5120
31
0
0
LINE
100
AcDbEntity
8
MARK
100
AcDbLine
10
3021
20
5040
30
0
11
3021
21
5120
31
0
0
TEXT
100
AcDbEntity
8
LABEL
100
AcDbText
10
1500
20
5050
30
0
40
18
1
P03-U03-M04 3006.00 45.0/45.0
7
STANDARD
0
LINE
100
AcDbEntity
8
MARK
100
AcDbLine
10
5431
20
5040
30
0
11
5431
21
5120
31
0
0
TEXT
100
AcDbEntity
8
LABEL
100
AcDbText
10
4210
20
5050
30
0
40
18
1
P03-U03-M03 2406.00 45.0/45.0
7
STANDARD
0
LWPOLYLINE
100
AcDbEntity
8
OUTLINE
100
AcDbPolyline
90
4
70
1
10
0
20
5160
10
6000
20
5160
10
6000
20
5240
10
0
20
5240
0
TEXT
100
AcDbEntity
8
LABEL
100
AcDbText
10
0
20
5138
30
0
40
18
1
COMPRA-DEMO_CORREDERA_60-RIEL stock 6000.00
7
STANDARD
0
LINE
100
AcDbEntity
8
MARK
100
AcDbLine
10
15
20
5160
30
0
11
15
21
5240
31
0
0
LINE
100
AcDbEntity
8
MARK
100
AcDbLine
10
2895
20
5160
30
0
11
2895
21
5240
31
0
0
TEXT
100
AcDbEntity
8
LABEL
100
AcDbText
10
1437
20
5170
30
0
40
18
1
P03-U01-M05 2880.00 90.0/90.0
7
STANDARD
0
LINE
100
AcDbEntity
8
MARK
100
AcDbLine
10
5779
20
5160
30
0
11
5779
21
5240
31
0
0
TEXT
100
AcDbEntity
8
LABEL
100
AcDbText
10
4321
20
5170
30
0
40
18
1
P03-U02-M05 2880.00 90.0/90.0
7
STANDARD
0
LWPOLYLINE
100
AcDbEntity
8
OUTLINE
100
AcDbPolyline
90
4
70
1
10
0
20
5280
10
6000
20
5280
10
6000
20
5360
10
0
20
5360
0
TEXT
100
AcDbEntity
8
LABEL
100
AcDbText
10
0
20
5258
30
0
40
18
1
COMPRA-DEMO_CORREDERA_60-RIEL stock 6000.00
7
STANDARD
0
LINE
100
AcDbEntity
8
MARK
100
AcDbLine
10
15
20
5280
30
0
11
15
21
5360
31
0
0
LINE
100
AcDbEntity
8
MARK
100
AcDbLine
10
2895
20
5280
30
0
11
2895
21
5360
31
0
0
TEXT
100
AcDbEntity
8
LABEL
100
AcDbText
10
1437
20
5290
30
0
40
18
1
P03-U03-M05 2880.00 90.0/90.0
7
STANDARD
0
LINE
100
AcDbEntity
8
MARK
100
AcDbLine
10
5779
20
5280
30
0
11
5779
21
5360
31
0
0
TEXT
100
AcDbEntity
8
LABEL
100
AcDbText
10
4321
20
5290
30
0
40
18
1
P03-U01-M06 2880.00 90.0/90.0
7
STANDARD
0
LWPOLYLINE
100
AcDbEntity
8
OUTLINE
100
AcDbPolyline
90
4
70
1
10
0
20
5400
10
6000
20
5400
10
6000
20
5480
10
0
20
5480
0
TEXT
100
AcDbEntity
8
LABEL
100
AcDbText
10
0
20
5378
30
0
40
18
1
COMPRA-DEMO_CORREDERA_60-RIEL stock 6000.00
7
STANDARD
0
LINE
100
AcDbEntity
8
MARK
100
AcDbLine
10
15
20
5400
30
0
11
15
21
5480
31
0
0
LINE
100
AcDbEntity
8
MARK
100
AcDbLine
10
2895
20
5400
30
0
11
2895
21
5480
31
0
0
TEXT
100
AcDbEntity
8
LABEL
100
AcDbText
10
1437
20
5410
30
0
40
18
1
P03-U02-M06 2880.00 90.0/90.0
7
STANDARD
0
LINE
100
AcDbEntity
8
MARK
100
AcDbLine
10
5779
20
5400
30
0
11
5779
21
5480
31
0
0
TEXT
100
AcDbEntity
8
LABEL
100
AcDbText
10
4321
20
5410
30
0
40
18
1
P03-U03-M06 2880.00 90.0/90.0
7
STANDARD
0
ENDSEC
0
EOF
