0
SECTION
2
HEADER
9
$ACADVER
1
AC1015
9
$INSUNITS
70
4
9
$EXTMIN
10
0
20
0
30
0
9
$EXTMAX
10
6000
20
960
30
0
0
ENDSEC
0
SECTION
2
TABLES
0
TABLE
2
LTYPE
70
1
0
LTYPE
2
CONTINUOUS
70
0
3
Solid line
72
65
73
0
40
0
0
ENDTAB
0
TABLE
2
LAYER
70
4
0
LAYER
2
OUTLINE
70
0
62
7
6
CONTINUOUS
0
LAYER
2
CUT
70
0
62
1
6
CONTINUOUS
0
LAYER
2
LABEL
70
0
62
3
6
CONTINUOUS
0
LAYER
2
MARK
70
0
62
5
6
CONTINUOUS
0
ENDTAB
0
TABLE
2
STYLE
70
1
0
STYLE
2
STANDARD
70
0
40
0
41
1
50
0
71
0
42
2.5
3
txt
4

0
ENDTAB
0
ENDSEC
0
SECTION
2
ENTITIES
0
LWPOLYLINE
100
AcDbEntity
8
OUTLINE
100
AcDbPolyline
90
4
70
1
10
0
20
0
10
6000
20
0
10
6000
20
80
10
0
20
80
0
TEXT
100
AcDbEntity
8
LABEL
100
AcDbText
10
0
20
-22
30
0
40
18
1
COMPRA-DEMO_60-ACERO-HOJA stock 6000.00
7
STANDARD
0
LINE
100
AcDbEntity
8
MARK
100
AcDbLine
10
15
20
0
30
0
11
15
21
80
31
0
0
LINE
100
AcDbEntity
8
MARK
100
AcDbLine
10
1287
20
0
30
0
11
1287
21
80
31
0
0
TEXT
100
AcDbEntity
8
LABEL
100
AcDbText
10
633
20
10
30
0
40
18
1
P05-U01-M06-R 1272.00 90/90
7
STANDARD
0
LINE
100
AcDbEntity
8
MARK
100
AcDbLine
10
2563
20
0
30
0
11
2563
21
80
31
0
0
TEXT
100
AcDbEntity
8
LABEL
100
AcDbText
10
1909
20
10
30
0
40
18
1
P05-U02-M06-R 1272.00 90/90
7
STANDARD
0
LINE
100
AcDbEntity
8
MARK
100
AcDbLine
10
3839
20
0
30
0
11
3839
21
80
31
0
0
TEXT
100
AcDbEntity
8
LABEL
100
AcDbText
10
3185
20
10
30
0
40
18
1
P05-U01-M07-R 1272.00 90/90
7
STANDARD
0
LINE
100
AcDbEntity
8
MARK
100
AcDbLine
10
5115
20
0
30
0
11
5115
21
80
31
0
0
TEXT
100
AcDbEntity
8
LABEL
100
AcDbText
10
4461
20
10
30
0
40
18
1
P05-U02-M07-R 1272.00 90/90
7
STANDARD
0
LWPOLYLINE
100
AcDbEntity
8
OUTLINE
100
AcDbPolyline
90
4
70
1
10
0
20
120
10
6000
20
120
10
6000
20
200
10
0
20
200
0
TEXT
100
AcDbEntity
8
LABEL
100
AcDbText
10
0
20
98
30
0
40
18
1
COMPRA-DEMO_60-ACERO-MARCO stock 6000.00
7
STANDARD
0
LINE
100
AcDbEntity
8
MARK
100
AcDbLine
10
15
20
120
30
0
11
15
21
200
31
0
0
LINE
100
AcDbEntity
8
MARK
100
AcDbLine
10
1391
20
120
30
0
11
1391
21
200
31
0
0
TEXT
100
AcDbEntity
8
LABEL
100
AcDbText
10
685
20
130
30
0
40
18
1
P05-U01-M02-R 1376.00 90/90
7
STANDARD
0
LINE
100
AcDbEntity
8
MARK
100
AcDbLine
10
2771
20
120
30
0
11
2771
21
200
31
0
0
TEXT
100
AcDbEntity
8
LABEL
100
AcDbText
10
2065
20
130
30
0
40
18
1
P05-U02-M02-R 1376.00 90/90
7
STANDARD
0
LINE
100
AcDbEntity
8
MARK
100
AcDbLine
10
4151
20
120
30
0
11
4151
21
200
31
0
0
TEXT
100
AcDbEntity
8
LABEL
100
AcDbText
10
3445
20
130
30
0
40
18
1
P05-U01-M03-R 1376.00 90/90
7
STANDARD
0
LINE
100
AcDbEntity
8
MARK
100
AcDbLine
10
5531
20
120
30
0
11
5531
21
200
31
0
0
TEXT
100
AcDbEntity
8
LABEL
100
AcDbText
10
4825
20
130
30
0
40
18
1
P05-U02-M03-R 1376.00 90/90
7
STANDARD
0
LWPOLYLINE
100
AcDbEntity
8
OUTLINE
100
AcDbPolyline
90
4
70
1
10
0
20
240
10
6000
20
240
10
6000
20
320
10
0
20
320
0
TEXT
100
AcDbEntity
8
LABEL
100
AcDbText
10
0
20
218
30
0
40
18
1
COMPRA-DEMO_60-HOJA stock 6000.00
7
STANDARD
0
LINE
100
AcDbEntity
8
MARK
100
AcDbLine
10
15
20
240
30
0
11
15
21
320
31
0
0
LINE
100
AcDbEntity
8
MARK
100
AcDbLine
10
1317
20
240
30
0
11
1317
21
320
31
0
0
TEXT
100
AcDbEntity
8
LABEL
100
AcDbText
10
648
20
250
30
0
40
18
1
P05-U01-M06 1302.00 45.0/45.0
7
STANDARD
0
LINE
100
AcDbEntity
8
MARK
100
AcDbLine
10
2623
20
240
30
0
11
2623
21
320
31
0
0
TEXT
100
AcDbEntity
8
LABEL
100
AcDbText
10
1954
20
250
30
0
40
18
1
P05-U02-M06 1302.00 45.0/45.0
7
STANDARD
0
LINE
100
AcDbEntity
8
MARK
100
AcDbLine
10
3929
20
240
30
0
11
3929
21
320
31
0
0
TEXT
100
AcDbEntity
8
LABEL
100
AcDbText
10
3260
20
250
30
0
40
18
1
P05-U01-M07 1302.00 45.0/45.0
7
STANDARD
0
LINE
100
AcDbEntity
8
MARK
100
AcDbLine
10
5235
20
240
30
0
11
5235
21
320
31
0
0
TEXT
100
AcDbEntity
8
LABEL
100
AcDbText
10
4566
20
250
30
0
40
18
1
P05-U02-M07 1302.00 45.0/45.0
7
STANDARD
0
LWPOLYLINE
100
AcDbEntity
8
OUTLINE
100
AcDbPolyline
90
4
70
1
10
0
20
360
10
6000
20
360
10
6000
20
440
10
0
20
440
0
TEXT
100
AcDbEntity
8
LABEL
100
AcDbText
10
0
20
338
30
0
40
18
1
COMPRA-DEMO_60-HOJA stock 6000.00
7
STANDARD
0
LINE
100
AcDbEntity
8
MARK
100
AcDbLine
10
15
20
360
30
0
11
15
21
440
31
0
0
LINE
100
AcDbEntity
8
MARK
100
AcDbLine
10
817
20
360
30
0
11
817
21
440
31
0
0
TEXT
100
AcDbEntity
8
LABEL
100
AcDbText
10
398
20
370
30
0
40
18
1
P05-U01-M05 802.00 45.0/45.0
7
STANDARD
0
LINE
100
AcDbEntity
8
MARK
100
AcDbLine
10
1623
20
360
30
0
11
1623
21
440
31
0
0
TEXT
100
AcDbEntity
8
LABEL
100
AcDbText
10
1204
20
370
30
0
40
18
1
P05-U02-M05 802.00 45.0/45.0
7
STANDARD
0
LINE
100
AcDbEntity
8
MARK
100
AcDbLine
10
2429
20
360
30
0
11
2429
21
440
31
0
0
TEXT
100
AcDbEntity
8
LABEL
100
AcDbText
10
2010
20
370
30
0
40
18
1
P05-U01-M08 802.00 45.0/45.0
7
STANDARD
0
LINE
100
AcDbEntity
8
MARK
100
AcDbLine
10
3235
20
360
30
0
11
3235
21
440
31
0
0
TEXT
100
AcDbEntity
8
LABEL
100
AcDbText
10
2816
20
370
30
0
40
18
1
P05-U02-M08 802.00 45.0/45.0
7
STANDARD
0
LWPOLYLINE
100
AcDbEntity
8
OUTLINE
100
AcDbPolyline
90
4
70
1
10
0
20
480
10
6000
20
480
10
6000
20
560
10
0
20
560
0
TEXT
100
AcDbEntity
8
LABEL
100
AcDbText
10
0
20
458
30
0
40
18
1
COMPRA-DEMO_60-JQ-10 stock 6000.00
7
STANDARD
0
LINE
100
AcDbEntity
8
MARK
100
AcDbLine
10
15
20
480
30
0
11
15
21
560
31
0
0
LINE
100
AcDbEntity
8
MARK
100
AcDbLine
10
1194
20
480
30
0
11
1194
21
560
31
0
0
TEXT
100
AcDbEntity
8
LABEL
100
AcDbText
10
586.500
20
490
30
0
40
18
1
P05-U01-M10 1179.00 90.0/90.0
7
STANDARD
0
LINE
100
AcDbEntity
8
MARK
100
AcDbLine
10
2377
20
480
30
0
11
2377
21
560
31
0
0
TEXT
100
AcDbEntity
8
LABEL
100
AcDbText
10
1769.500
20
490
30
0
40
18
1
P05-U02-M10 1179.00 90.0/90.0
7
STANDARD
0
LINE
100
AcDbEntity
8
MARK
100
AcDbLine
10
3560
20
480
30
0
11
3560
21
560
31
0
0
TEXT
100
AcDbEntity
8
LABEL
100
AcDbText
10
2952.500
20
490
30
0
40
18
1
P05-U01-M11 1179.00 90.0/90.0
7
STANDARD
0
LINE
100
AcDbEntity
8
MARK
100
AcDbLine
10
4743
20
480
30
0
11
4743
21
560
31
0
0
TEXT
100
AcDbEntity
8
LABEL
100
AcDbText
10
4135.500
20
490
30
0
40
18
1
P05-U02-M11 1179.00 90.0/90.0
7
STANDARD
0
LINE
100
AcDbEntity
8
MARK
100
AcDbLine
10
5426
20
480
30
0
11
5426
21
560
31
0
0
TEXT
100
AcDbEntity
8
LABEL
100
AcDbText
10
5068.500
20
490
30
0
40
18
1
P05-U01-M09 679.00 90.0/90.0
7
STANDARD
0
LWPOLYLINE
100
AcDbEntity
8
OUTLINE
100
AcDbPolyline
90
4
70
1
10
0
20
600
10
6000
20
600
10
6000
20
680
10
0
20
680
0
TEXT
100
AcDbEntity
8
LABEL
100
AcDbText
10
0
20
578
30
0
40
18
1
COMPRA-DEMO_60-JQ-10 stock 6000.00
7
STANDARD
0
LINE
100
AcDbEntity
8
MARK
100
AcDbLine
10
15
20
600
30
0
11
15
21
680
31
0
0
LINE
100
AcDbEntity
8
MARK
100
AcDbLine
10
694
20
600
30
0
11
694
21
680
31
0
0
TEXT
100
AcDbEntity
8
LABEL
100
AcDbText
10
336.500
20
610
30
0
40
18
1
P05-U02-M09 679.00 90.0/90.0
7
STANDARD
0
LINE
100
AcDbEntity
8
MARK
100
AcDbLine
10
1377
20
600
30
0
11
1377
21
680
31
0
0
TEXT
100
AcDbEntity
8
LABEL
100
AcDbText
10
1019.500
20
610
30
0
40
18
1
P05-U01-M12 679.00 90.0/90.0
7
STANDARD
0
LINE
100
AcDbEntity
8
MARK
100
AcDbLine
10
2060
20
600
30
0
11
2060
21
680
31
0
0
TEXT
100
AcDbEntity
8
LABEL
100
AcDbText
10
1702.500
20
610
30
0
40
18
1
P05-U02-M12 679.00 90.0/90.0
7
STANDARD
0
LWPOLYLINE
100
AcDbEntity
8
OUTLINE
100
AcDbPolyline
90
4
70
1
10
0
20
720
10
6000
20
720
10
6000
20
800
10
0
20
800
0
TEXT
100
AcDbEntity
8
LABEL
100
AcDbText
10
0
20
698
30
0
40
18
1
COMPRA-DEMO_60-MARCO stock 6000.00
7
STANDARD
0
LINE
100
AcDbEntity
8
MARK
100
AcDbLine
10
15
20
720
30
0
11
15
21
800
31
0
0
LINE
100
AcDbEntity
8
MARK
100
AcDbLine
10
1421
20
720
30
0
11
1421
21
800
31
0
0
TEXT
100
AcDbEntity
8
LABEL
100
AcDbText
10
700
20
730
30
0
40
18
1
P05-U01-M02 1406.00 45.0/45.0
7
STANDARD
0
LINE
100
AcDbEntity
8
MARK
100
AcDbLine
10
2831
20
720
30
0
11
2831
21
800
31
0
0
TEXT
100
AcDbEntity
8
LABEL
100
AcDbText
10
2110
20
730
30
0
40
18
1
P05-U02-M02 1406.00 45.0/45.0
7
STANDARD
0
LINE
100
AcDbEntity
8
MARK
100
AcDbLine
10
4241
20
720
30
0
11
4241
21
800
31
0
0
TEXT
100
AcDbEntity
8
LABEL
100
AcDbText
10
3520
20
730
30
0
40
18
1
P05-U01-M03 1406.00 45.0/45.0
7
STANDARD
0
LINE
100
AcDbEntity
8
MARK
100
AcDbLine
10
5651
20
720
30
0
11
5651
21
800
31
0
0
TEXT
100
AcDbEntity
8
LABEL
100
AcDbText
10
4930
20
730
30
0
40
18
1
P05-U02-M03 1406.00 45.0/45.0
7
STANDARD
0
LWPOLYLINE
100
AcDbEntity
8
OUTLINE
100
AcDbPolyline
90
4
70
1
10
0
20
840
10
6000
20
840
10
6000
20
920
10
0
20
920
0
TEXT
100
AcDbEntity
8
LABEL
100
AcDbText
10
0
20
818
30
0
40
18
1
COMPRA-DEMO_60-MARCO stock 6000.00
7
STANDARD
0
LINE
100
AcDbEntity
8
MARK
100
AcDbLine
10
15
20
840
30
0
11
15
21
920
31
0
0
LINE
100
AcDbEntity
8
MARK
100
AcDbLine
10
921
20
840
30
0
11
921
21
920
31
0
0
TEXT
100
AcDbEntity
8
LABEL
100
AcDbText
10
450
20
850
30
0
40
18
1
P05-U01-M01 906.00 45.0/45.0
7
STANDARD
0
LINE
100
AcDbEntity
8
MARK
100
AcDbLine
10
1831
20
840
30
0
11
1831
21
920
31
0
0
TEXT
100
AcDbEntity
8
LABEL
100
AcDbText
10
1360
20
850
30
0
40
18
1
P05-U02-M01 906.00 45.0/45.0
7
STANDARD
0
LINE
100
AcDbEntity
8
MARK
100
AcDbLine
10
2741
20
840
30
0
11
2741
21
920
31
0
0
TEXT
100
AcDbEntity
8
LABEL
100
AcDbText
10
2270
20
850
30
0
40
18
1
P05-U01-M04 906.00 45.0/45.0
7
STANDARD
0
LINE
100
AcDbEntity
8
MARK
100
AcDbLine
10
3651
20
840
30
0
11
3651
21
920
31
0
0
TEXT
100
AcDbEntity
8
LABEL
100
AcDbText
10
3180
20
850
30
0
40
18
1
P05-U02-M04 906.00 45.0/45.0
7
STANDARD
0
ENDSEC
0
EOF
