0
SECTION
2
HEADER
9
$ACADVER
1
AC1015
9
$INSUNITS
70
4
9
$EXTMIN
10
0
20
0
30
0
9
$EXTMAX
10
6000
20
1320
30
0
0
ENDSEC
0
SECTION
2
TABLES
0
TABLE
2
LTYPE
70
1
0
LTYPE
2
CONTINUOUS
70
0
3
Solid line
72
65
73
0
40
0
0
ENDTAB
0
TABLE
2
LAYER
70
4
0
LAYER
2
OUTLINE
70
0
62
7
6
CONTINUOUS
0
LAYER
2
CUT
70
0
62
1
6
CONTINUOUS
0
LAYER
2
LABEL
70
0
62
3
6
CONTINUOUS
0
LAYER
2
MARK
70
0
62
5
6
CONTINUOUS
0
ENDTAB
0
TABLE
2
STYLE
70
1
0
STYLE
2
STANDARD
70
0
40
0
41
1
50
0
71
0
42
2.5
3
txt
4

0
ENDTAB
0
ENDSEC
0
SECTION
2
ENTITIES
0
LWPOLYLINE
100
AcDbEntity
8
OUTLINE
100
AcDbPolyline
90
4
70
1
10
0
20
0
10
6000
20
0
10
6000
20
80
10
0
20
80
0
TEXT
100
AcDbEntity
8
LABEL
100
AcDbText
10
0
20
-22
30
0
40
18
1
COMPRA-DEMO_PUERTA_70-ACERO-HOJA stock 6000.00
7
STANDARD
0
LINE
100
AcDbEntity
8
MARK
100
AcDbLine
10
15
20
0
30
0
11
15
21
80
31
0
0
LINE
100
AcDbEntity
8
MARK
100
AcDbLine
10
2079
20
0
30
0
11
2079
21
80
31
0
0
TEXT
100
AcDbEntity
8
LABEL
100
AcDbText
10
1029
20
10
30
0
40
18
1
P08-U01-M05-R 2064.00 90/90
7
STANDARD
0
LINE
100
AcDbEntity
8
MARK
100
AcDbLine
10
4147
20
0
30
0
11
4147
21
80
31
0
0
TEXT
100
AcDbEntity
8
LABEL
100
AcDbText
10
3097
20
10
30
0
40
18
1
P08-U02-M05-R 2064.00 90/90
7
STANDARD
0
LWPOLYLINE
100
AcDbEntity
8
OUTLINE
100
AcDbPolyline
90
4
70
1
10
0
20
120
10
6000
20
120
10
6000
20
200
10
0
20
200
0
TEXT
100
AcDbEntity
8
LABEL
100
AcDbText
10
0
20
98
30
0
40
18
1
COMPRA-DEMO_PUERTA_70-ACERO-HOJA stock 6000.00
7
STANDARD
0
LINE
100
AcDbEntity
8
MARK
100
AcDbLine
10
15
20
120
30
0
11
15
21
200
31
0
0
LINE
100
AcDbEntity
8
MARK
100
AcDbLine
10
2079
20
120
30
0
11
2079
21
200
31
0
0
TEXT
100
AcDbEntity
8
LABEL
100
AcDbText
10
1029
20
130
30
0
40
18
1
P08-U01-M06-R 2064.00 90/90
7
STANDARD
0
LINE
100
AcDbEntity
8
MARK
100
AcDbLine
10
4147
20
120
30
0
11
4147
21
200
31
0
0
TEXT
100
AcDbEntity
8
LABEL
100
AcDbText
10
3097
20
130
30
0
40
18
1
P08-U02-M06-R 2064.00 90/90
7
STANDARD
0
LWPOLYLINE
100
AcDbEntity
8
OUTLINE
100
AcDbPolyline
90
4
70
1
10
0
20
240
10
6000
20
240
10
6000
20
320
10
0
20
320
0
TEXT
100
AcDbEntity
8
LABEL
100
AcDbText
10
0
20
218
30
0
40
18
1
COMPRA-DEMO_PUERTA_70-ACERO-MARCO stock 6000.00
7
STANDARD
0
LINE
100
AcDbEntity
8
MARK
100
AcDbLine
10
15
20
240
30
0
11
15
21
320
31
0
0
LINE
100
AcDbEntity
8
MARK
100
AcDbLine
10
2188
20
240
30
0
11
2188
21
320
31
0
0
TEXT
100
AcDbEntity
8
LABEL
100
AcDbText
10
1083.500
20
250
30
0
40
18
1
P08-U01-M01-R 2173.00 90/90
7
STANDARD
0
LINE
100
AcDbEntity
8
MARK
100
AcDbLine
10
4365
20
240
30
0
11
4365
21
320
31
0
0
TEXT
100
AcDbEntity
8
LABEL
100
AcDbText
10
3260.500
20
250
30
0
40
18
1
P08-U02-M01-R 2173.00 90/90
7
STANDARD
0
LINE
100
AcDbEntity
8
MARK
100
AcDbLine
10
5345
20
240
30
0
11
5345
21
320
31
0
0
TEXT
100
AcDbEntity
8
LABEL
100
AcDbText
10
4839
20
250
30
0
40
18
1
P08-U01-M03-R 976.00 90/90
7
STANDARD
0
LWPOLYLINE
100
AcDbEntity
8
OUTLINE
100
AcDbPolyline
90
4
70
1
10
0
20
360
10
6000
20
360
10
6000
20
440
10
0
20
440
0
TEXT
100
AcDbEntity
8
LABEL
100
AcDbText
10
0
20
338
30
0
40
18
1
COMPRA-DEMO_PUERTA_70-ACERO-MARCO stock 6000.00
7
STANDARD
0
LINE
100
AcDbEntity
8
MARK
100
AcDbLine
10
15
20
360
30
0
11
15
21
440
31
0
0
LINE
100
AcDbEntity
8
MARK
100
AcDbLine
10
2188
20
360
30
0
11
2188
21
440
31
0
0
TEXT
100
AcDbEntity
8
LABEL
100
AcDbText
10
1083.500
20
370
30
0
40
18
1
P08-U01-M02-R 2173.00 90/90
7
STANDARD
0
LINE
100
AcDbEntity
8
MARK
100
AcDbLine
10
4365
20
360
30
0
11
4365
21
440
31
0
0
TEXT
100
AcDbEntity
8
LABEL
100
AcDbText
10
3260.500
20
370
30
0
40
18
1
P08-U02-M02-R 2173.00 90/90
7
STANDARD
0
LINE
100
AcDbEntity
8
MARK
100
AcDbLine
10
5345
20
360
30
0
11
5345
21
440
31
0
0
TEXT
100
AcDbEntity
8
LABEL
100
AcDbText
10
4839
20
370
30
0
40
18
1
P08-U02-M03-R 976.00 90/90
7
STANDARD
0
LWPOLYLINE
100
AcDbEntity
8
OUTLINE
100
AcDbPolyline
90
4
70
1
10
0
20
480
10
6000
20
480
10
6000
20
560
10
0
20
560
0
TEXT
100
AcDbEntity
8
LABEL
100
AcDbText
10
0
20
458
30
0
40
18
1
COMPRA-DEMO_PUERTA_70-HOJA stock 6000.00
7
STANDARD
0
LINE
100
AcDbEntity
8
MARK
100
AcDbLine
10
15
20
480
30
0
11
15
21
560
31
0
0
LINE
100
AcDbEntity
8
MARK
100
AcDbLine
10
2109
20
480
30
0
11
2109
21
560
31
0
0
TEXT
100
AcDbEntity
8
LABEL
100
AcDbText
10
1044
20
490
30
0
40
18
1
P08-U01-M05 2094.00 45.0/45.0
7
STANDARD
0
LINE
100
AcDbEntity
8
MARK
100
AcDbLine
10
4207
20
480
30
0
11
4207
21
560
31
0
0
TEXT
100
AcDbEntity
8
LABEL
100
AcDbText
10
3142
20
490
30
0
40
18
1
P08-U02-M05 2094.00 45.0/45.0
7
STANDARD
0
LINE
100
AcDbEntity
8
MARK
100
AcDbLine
10
5063
20
480
30
0
11
5063
21
560
31
0
0
TEXT
100
AcDbEntity
8
LABEL
100
AcDbText
10
4619
20
490
30
0
40
18
1
P08-U01-M04 852.00 45.0/45.0
7
STANDARD
0
LINE
100
AcDbEntity
8
MARK
100
AcDbLine
10
5919
20
480
30
0
11
5919
21
560
31
0
0
TEXT
100
AcDbEntity
8
LABEL
100
AcDbText
10
5475
20
490
30
0
40
18
1
P08-U02-M04 852.00 45.0/45.0
7
STANDARD
0
LWPOLYLINE
100
AcDbEntity
8
OUTLINE
100
AcDbPolyline
90
4
70
1
10
0
20
600
10
6000
20
600
10
6000
20
680
10
0
20
680
0
TEXT
100
AcDbEntity
8
LABEL
100
AcDbText
10
0
20
578
30
0
40
18
1
COMPRA-DEMO_PUERTA_70-HOJA stock 6000.00
7
STANDARD
0
LINE
100
AcDbEntity
8
MARK
100
AcDbLine
10
15
20
600
30
0
11
15
21
680
31
0
0
LINE
100
AcDbEntity
8
MARK
100
AcDbLine
10
2109
20
600
30
0
11
2109
21
680
31
0
0
TEXT
100
AcDbEntity
8
LABEL
100
AcDbText
10
1044
20
610
30
0
40
18
1
P08-U01-M06 2094.00 45.0/45.0
7
STANDARD
0
LINE
100
AcDbEntity
8
MARK
100
AcDbLine
10
4207
20
600
30
0
11
4207
21
680
31
0
0
TEXT
100
AcDbEntity
8
LABEL
100
AcDbText
10
3142
20
610
30
0
40
18
1
P08-U02-M06 2094.00 45.0/45.0
7
STANDARD
0
LINE
100
AcDbEntity
8
MARK
100
AcDbLine
10
5063
20
600
30
0
11
5063
21
680
31
0
0
TEXT
100
AcDbEntity
8
LABEL
100
AcDbText
10
4619
20
610
30
0
40
18
1
P08-U01-M07 852.00 45.0/45.0
7
STANDARD
0
LINE
100
AcDbEntity
8
MARK
100
AcDbLine
10
5919
20
600
30
0
11
5919
21
680
31
0
0
TEXT
100
AcDbEntity
8
LABEL
100
AcDbText
10
5475
20
610
30
0
40
18
1
P08-U02-M07 852.00 45.0/45.0
7
STANDARD
0
LWPOLYLINE
100
AcDbEntity
8
OUTLINE
100
AcDbPolyline
90
4
70
1
10
0
20
720
10
6000
20
720
10
6000
20
800
10
0
20
800
0
TEXT
100
AcDbEntity
8
LABEL
100
AcDbText
10
0
20
698
30
0
40
18
1
COMPRA-DEMO_PUERTA_70-JQ-10 stock 6000.00
7
STANDARD
0
LINE
100
AcDbEntity
8
MARK
100
AcDbLine
10
15
20
720
30
0
11
15
21
800
31
0
0
LINE
100
AcDbEntity
8
MARK
100
AcDbLine
10
1986
20
720
30
0
11
1986
21
800
31
0
0
TEXT
100
AcDbEntity
8
LABEL
100
AcDbText
10
982.500
20
730
30
0
40
18
1
P08-U01-M09 1971.00 90.0/90.0
7
STANDARD
0
LINE
100
AcDbEntity
8
MARK
100
AcDbLine
10
3961
20
720
30
0
11
3961
21
800
31
0
0
TEXT
100
AcDbEntity
8
LABEL
100
AcDbText
10
2957.500
20
730
30
0
40
18
1
P08-U02-M09 1971.00 90.0/90.0
7
STANDARD
0
LINE
100
AcDbEntity
8
MARK
100
AcDbLine
10
5936
20
720
30
0
11
5936
21
800
31
0
0
TEXT
100
AcDbEntity
8
LABEL
100
AcDbText
10
4932.500
20
730
30
0
40
18
1
P08-U01-M10 1971.00 90.0/90.0
7
STANDARD
0
LWPOLYLINE
100
AcDbEntity
8
OUTLINE
100
AcDbPolyline
90
4
70
1
10
0
20
840
10
6000
20
840
10
6000
20
920
10
0
20
920
0
TEXT
100
AcDbEntity
8
LABEL
100
AcDbText
10
0
20
818
30
0
40
18
1
COMPRA-DEMO_PUERTA_70-JQ-10 stock 6000.00
7
STANDARD
0
LINE
100
AcDbEntity
8
MARK
100
AcDbLine
10
15
20
840
30
0
11
15
21
920
31
0
0
LINE
100
AcDbEntity
8
MARK
100
AcDbLine
10
1986
20
840
30
0
11
1986
21
920
31
0
0
TEXT
100
AcDbEntity
8
LABEL
100
AcDbText
10
982.500
20
850
30
0
40
18
1
P08-U02-M10 1971.00 90.0/90.0
7
STANDARD
0
LINE
100
AcDbEntity
8
MARK
100
AcDbLine
10
2719
20
840
30
0
11
2719
21
920
31
0
0
TEXT
100
AcDbEntity
8
LABEL
100
AcDbText
10
2336.500
20
850
30
0
40
18
1
P08-U01-M08 729.00 90.0/90.0
7
STANDARD
0
LINE
100
AcDbEntity
8
MARK
100
AcDbLine
10
3452
20
840
30
0
11
3452
21
920
31
0
0
TEXT
100
AcDbEntity
8
LABEL
100
AcDbText
10
3069.500
20
850
30
0
40
18
1
P08-U02-M08 729.00 90.0/90.0
7
STANDARD
0
LINE
100
AcDbEntity
8
MARK
100
AcDbLine
10
4185
20
840
30
0
11
4185
21
920
31
0
0
TEXT
100
AcDbEntity
8
LABEL
100
AcDbText
10
3802.500
20
850
30
0
40
18
1
P08-U01-M11 729.00 90.0/90.0
7
STANDARD
0
LINE
100
AcDbEntity
8
MARK
100
AcDbLine
10
4918
20
840
30
0
11
4918
21
920
31
0
0
TEXT
100
AcDbEntity
8
LABEL
100
AcDbText
10
4535.500
20
850
30
0
40
18
1
P08-U02-M11 729.00 90.0/90.0
7
STANDARD
0
LWPOLYLINE
100
AcDbEntity
8
OUTLINE
100
AcDbPolyline
90
4
70
1
10
0
20
960
10
6000
20
960
10
6000
20
1040
10
0
20
1040
0
TEXT
100
AcDbEntity
8
LABEL
100
AcDbText
10
0
20
938
30
0
40
18
1
COMPRA-DEMO_PUERTA_70-MARCO stock 6000.00
7
STANDARD
0
LINE
100
AcDbEntity
8
MARK
100
AcDbLine
10
15
20
960
30
0
11
15
21
1040
31
0
0
LINE
100
AcDbEntity
8
MARK
100
AcDbLine
10
2218
20
960
30
0
11
2218
21
1040
31
0
0
TEXT
100
AcDbEntity
8
LABEL
100
AcDbText
10
1098.500
20
970
30
0
40
18
1
P08-U01-M01 2203.00 45.0/90.0
7
STANDARD
0
LINE
100
AcDbEntity
8
MARK
100
AcDbLine
10
4425
20
960
30
0
11
4425
21
1040
31
0
0
TEXT
100
AcDbEntity
8
LABEL
100
AcDbText
10
3305.500
20
970
30
0
40
18
1
P08-U02-M01 2203.00 45.0/90.0
7
STANDARD
0
LINE
100
AcDbEntity
8
MARK
100
AcDbLine
10
5435
20
960
30
0
11
5435
21
1040
31
0
0
TEXT
100
AcDbEntity
8
LABEL
100
AcDbText
10
4914
20
970
30
0
40
18
1
P08-U01-M03 1006.00 45.0/45.0
7
STANDARD
0
LWPOLYLINE
100
AcDbEntity
8
OUTLINE
100
AcDbPolyline
90
4
70
1
10
0
20
1080
10
6000
20
1080
10
6000
20
1160
10
0
20
1160
0
TEXT
100
AcDbEntity
8
LABEL
100
AcDbText
10
0
20
1058
30
0
40
18
1
COMPRA-DEMO_PUERTA_70-MARCO stock 6000.00
7
STANDARD
0
LINE
100
AcDbEntity
8
MARK
100
AcDbLine
10
15
20
1080
30
0
11
15
21
1160
31
0
0
LINE
100
AcDbEntity
8
MARK
100
AcDbLine
10
2218
20
1080
30
0
11
2218
21
1160
31
0
0
TEXT
100
AcDbEntity
8
LABEL
100
AcDbText
10
1098.500
20
1090
30
0
40
18
1
P08-U01-M02 2203.00 45.0/90.0
7
STANDARD
0
LINE
100
AcDbEntity
8
MARK
100
AcDbLine
10
4425
20
1080
30
0
11
4425
21
1160
31
0
0
TEXT
100
AcDbEntity
8
LABEL
100
AcDbText
10
3305.500
20
1090
30
0
40
18
1
P08-U02-M02 2203.00 45.0/90.0
7
STANDARD
0
LINE
100
AcDbEntity
8
MARK
100
AcDbLine
10
5435
20
1080
30
0
11
5435
21
1160
31
0
0
TEXT
100
AcDbEntity
8
LABEL
100
AcDbText
10
4914
20
1090
30
0
40
18
1
P08-U02-M03 1006.00 45.0/45.0
7
STANDARD
0
LWPOLYLINE
100
AcDbEntity
8
OUTLINE
100
AcDbPolyline
90
4
70
1
10
0
20
1200
10
6000
20
1200
10
6000
20
1280
10
0
20
1280
0
TEXT
100
AcDbEntity
8
LABEL
100
AcDbText
10
0
20
1178
30
0
40
18
1
COMPRA-DEMO_PUERTA_70-UMBRAL stock 6000.00
7
STANDARD
0
LINE
100
AcDbEntity
8
MARK
100
AcDbLine
10
15
20
1200
30
0
11
15
21
1280
31
0
0
LINE
100
AcDbEntity
8
MARK
100
AcDbLine
10
875
20
1200
30
0
11
875
21
1280
31
0
0
TEXT
100
AcDbEntity
8
LABEL
100
AcDbText
10
427
20
1210
30
0
40
18
1
P08-U01-M12 860.00 90.0/90.0
7
STANDARD
0
LINE
100
AcDbEntity
8
MARK
100
AcDbLine
10
1739
20
1200
30
0
11
1739
21
1280
31
0
0
TEXT
100
AcDbEntity
8
LABEL
100
AcDbText
10
1291
20
1210
30
0
40
18
1
P08-U02-M12 860.00 90.0/90.0
7
STANDARD
0
ENDSEC
0
EOF
