0
SECTION
2
HEADER
9
$ACADVER
1
AC1015
9
$INSUNITS
70
4
9
$EXTMIN
10
0
20
0
30
0
9
$EXTMAX
10
6000
20
1920
30
0
0
ENDSEC
0
SECTION
2
TABLES
0
TABLE
2
LTYPE
70
1
0
LTYPE
2
CONTINUOUS
70
0
3
Solid line
72
65
73
0
40
0
0
ENDTAB
0
TABLE
2
LAYER
70
4
0
LAYER
2
OUTLINE
70
0
62
7
6
CONTINUOUS
0
LAYER
2
CUT
70
0
62
1
6
CONTINUOUS
0
LAYER
2
LABEL
70
0
62
3
6
CONTINUOUS
0
LAYER
2
MARK
70
0
62
5
6
CONTINUOUS
0
ENDTAB
0
TABLE
2
STYLE
70
1
0
STYLE
2
STANDARD
70
0
40
0
41
1
50
0
71
0
42
2.5
3
txt
4

0
ENDTAB
0
ENDSEC
0
SECTION
2
ENTITIES
0
LWPOLYLINE
100
AcDbEntity
8
OUTLINE
100
AcDbPolyline
90
4
70
1
10
0
20
0
10
6000
20
0
10
6000
20
80
10
0
20
80
0
TEXT
100
AcDbEntity
8
LABEL
100
AcDbText
10
0
20
-22
30
0
40
18
1
COMPRA-DEMO_CORREDERA_60-ACERO-ENCUENTRO stock 6000.00
7
STANDARD
0
LINE
100
AcDbEntity
8
MARK
100
AcDbLine
10
15
20
0
30
0
11
15
21
80
31
0
0
LINE
100
AcDbEntity
8
MARK
100
AcDbLine
10
2261
20
0
30
0
11
2261
21
80
31
0
0
TEXT
100
AcDbEntity
8
LABEL
100
AcDbText
10
1120
20
10
30
0
40
18
1
P07-U01-M08-R 2246.00 90/90
7
STANDARD
0
LINE
100
AcDbEntity
8
MARK
100
AcDbLine
10
4511
20
0
30
0
11
4511
21
80
31
0
0
TEXT
100
AcDbEntity
8
LABEL
100
AcDbText
10
3370
20
10
30
0
40
18
1
P07-U01-M17-R 2246.00 90/90
7
STANDARD
0
LWPOLYLINE
100
AcDbEntity
8
OUTLINE
100
AcDbPolyline
90
4
70
1
10
0
20
120
10
6000
20
120
10
6000
20
200
10
0
20
200
0
TEXT
100
AcDbEntity
8
LABEL
100
AcDbText
10
0
20
98
30
0
40
18
1
COMPRA-DEMO_CORREDERA_60-ACERO-HOJA-CORREDERA stock 6000.00
7
STANDARD
0
LINE
100
AcDbEntity
8
MARK
100
AcDbLine
10
15
20
120
30
0
11
15
21
200
31
0
0
LINE
100
AcDbEntity
8
MARK
100
AcDbLine
10
2261
20
120
30
0
11
2261
21
200
31
0
0
TEXT
100
AcDbEntity
8
LABEL
100
AcDbText
10
1120
20
130
30
0
40
18
1
P07-U01-M09-R 2246.00 90/90
7
STANDARD
0
LINE
100
AcDbEntity
8
MARK
100
AcDbLine
10
4511
20
120
30
0
11
4511
21
200
31
0
0
TEXT
100
AcDbEntity
8
LABEL
100
AcDbText
10
3370
20
130
30
0
40
18
1
P07-U01-M10-R 2246.00 90/90
7
STANDARD
0
LINE
100
AcDbEntity
8
MARK
100
AcDbLine
10
5971
20
120
30
0
11
5971
21
200
31
0
0
TEXT
100
AcDbEntity
8
LABEL
100
AcDbText
10
5225
20
130
30
0
40
18
1
P07-U01-M07-R 1456.00 90/90
7
STANDARD
0
LWPOLYLINE
100
AcDbEntity
8
OUTLINE
100
AcDbPolyline
90
4
70
1
10
0
20
240
10
6000
20
240
10
6000
20
320
10
0
20
320
0
TEXT
100
AcDbEntity
8
LABEL
100
AcDbText
10
0
20
218
30
0
40
18
1
COMPRA-DEMO_CORREDERA_60-ACERO-HOJA-CORREDERA stock 6000.00
7
STANDARD
0
LINE
100
AcDbEntity
8
MARK
100
AcDbLine
10
15
20
240
30
0
11
15
21
320
31
0
0
LINE
100
AcDbEntity
8
MARK
100
AcDbLine
10
2261
20
240
30
0
11
2261
21
320
31
0
0
TEXT
100
AcDbEntity
8
LABEL
100
AcDbText
10
1120
20
250
30
0
40
18
1
P07-U01-M18-R 2246.00 90/90
7
STANDARD
0
LINE
100
AcDbEntity
8
MARK
100
AcDbLine
10
4511
20
240
30
0
11
4511
21
320
31
0
0
TEXT
100
AcDbEntity
8
LABEL
100
AcDbText
10
3370
20
250
30
0
40
18
1
P07-U01-M19-R 2246.00 90/90
7
STANDARD
0
LINE
100
AcDbEntity
8
MARK
100
AcDbLine
10
5971
20
240
30
0
11
5971
21
320
31
0
0
TEXT
100
AcDbEntity
8
LABEL
100
AcDbText
10
5225
20
250
30
0
40
18
1
P07-U01-M11-R 1456.00 90/90
7
STANDARD
0
LWPOLYLINE
100
AcDbEntity
8
OUTLINE
100
AcDbPolyline
90
4
70
1
10
0
20
360
10
6000
20
360
10
6000
20
440
10
0
20
440
0
TEXT
100
AcDbEntity
8
LABEL
100
AcDbText
10
0
20
338
30
0
40
18
1
COMPRA-DEMO_CORREDERA_60-ACERO-HOJA-CORREDERA stock 6000.00
7
STANDARD
0
LINE
100
AcDbEntity
8
MARK
100
AcDbLine
10
15
20
360
30
0
11
15
21
440
31
0
0
LINE
100
AcDbEntity
8
MARK
100
AcDbLine
10
1471
20
360
30
0
11
1471
21
440
31
0
0
TEXT
100
AcDbEntity
8
LABEL
100
AcDbText
10
725
20
370
30
0
40
18
1
P07-U01-M16-R 1456.00 90/90
7
STANDARD
0
LINE
100
AcDbEntity
8
MARK
100
AcDbLine
10
2931
20
360
30
0
11
2931
21
440
31
0
0
TEXT
100
AcDbEntity
8
LABEL
100
AcDbText
10
2185
20
370
30
0
40
18
1
P07-U01-M20-R 1456.00 90/90
7
STANDARD
0
LWPOLYLINE
100
AcDbEntity
8
OUTLINE
100
AcDbPolyline
90
4
70
1
10
0
20
480
10
6000
20
480
10
6000
20
560
10
0
20
560
0
TEXT
100
AcDbEntity
8
LABEL
100
AcDbText
10
0
20
458
30
0
40
18
1
COMPRA-DEMO_CORREDERA_60-ACERO-MARCO stock 6000.00
7
STANDARD
0
LINE
100
AcDbEntity
8
MARK
100
AcDbLine
10
15
20
480
30
0
11
15
21
560
31
0
0
LINE
100
AcDbEntity
8
MARK
100
AcDbLine
10
2991
20
480
30
0
11
2991
21
560
31
0
0
TEXT
100
AcDbEntity
8
LABEL
100
AcDbText
10
1485
20
490
30
0
40
18
1
P07-U01-M01-R 2976.00 90/90
7
STANDARD
0
LINE
100
AcDbEntity
8
MARK
100
AcDbLine
10
5971
20
480
30
0
11
5971
21
560
31
0
0
TEXT
100
AcDbEntity
8
LABEL
100
AcDbText
10
4465
20
490
30
0
40
18
1
P07-U01-M04-R 2976.00 90/90
7
STANDARD
0
LWPOLYLINE
100
AcDbEntity
8
OUTLINE
100
AcDbPolyline
90
4
70
1
10
0
20
600
10
6000
20
600
10
6000
20
680
10
0
20
680
0
TEXT
100
AcDbEntity
8
LABEL
100
AcDbText
10
0
20
578
30
0
40
18
1
COMPRA-DEMO_CORREDERA_60-ACERO-MARCO stock 6000.00
7
STANDARD
0
LINE
100
AcDbEntity
8
MARK
100
AcDbLine
10
15
20
600
30
0
11
15
21
680
31
0
0
LINE
100
AcDbEntity
8
MARK
100
AcDbLine
10
2391
20
600
30
0
11
2391
21
680
31
0
0
TEXT
100
AcDbEntity
8
LABEL
100
AcDbText
10
1185
20
610
30
0
40
18
1
P07-U01-M02-R 2376.00 90/90
7
STANDARD
0
LINE
100
AcDbEntity
8
MARK
100
AcDbLine
10
4771
20
600
30
0
11
4771
21
680
31
0
0
TEXT
100
AcDbEntity
8
LABEL
100
AcDbText
10
3565
20
610
30
0
40
18
1
P07-U01-M03-R 2376.00 90/90
7
STANDARD
0
LWPOLYLINE
100
AcDbEntity
8
OUTLINE
100
AcDbPolyline
90
4
70
1
10
0
20
720
10
6000
20
720
10
6000
20
800
10
0
20
800
0
TEXT
100
AcDbEntity
8
LABEL
100
AcDbText
10
0
20
698
30
0
40
18
1
COMPRA-DEMO_CORREDERA_60-ENCUENTRO stock 6000.00
7
STANDARD
0
LINE
100
AcDbEntity
8
MARK
100
AcDbLine
10
15
20
720
30
0
11
15
21
800
31
0
0
LINE
100
AcDbEntity
8
MARK
100
AcDbLine
10
2271
20
720
30
0
11
2271
21
800
31
0
0
TEXT
100
AcDbEntity
8
LABEL
100
AcDbText
10
1125
20
730
30
0
40
18
1
P07-U01-M08 2256.00 90.0/90.0
7
STANDARD
0
LINE
100
AcDbEntity
8
MARK
100
AcDbLine
10
4531
20
720
30
0
11
4531
21
800
31
0
0
TEXT
100
AcDbEntity
8
LABEL
100
AcDbText
10
3385
20
730
30
0
40
18
1
P07-U01-M17 2256.00 90.0/90.0
7
STANDARD
0
LWPOLYLINE
100
AcDbEntity
8
OUTLINE
100
AcDbPolyline
90
4
70
1
10
0
20
840
10
6000
20
840
10
6000
20
920
10
0
20
920
0
TEXT
100
AcDbEntity
8
LABEL
100
AcDbText
10
0
20
818
30
0
40
18
1
COMPRA-DEMO_CORREDERA_60-HOJA-CORREDERA stock 6000.00
7
STANDARD
0
LINE
100
AcDbEntity
8
MARK
100
AcDbLine
10
15
20
840
30
0
11
15
21
920
31
0
0
LINE
100
AcDbEntity
8
MARK
100
AcDbLine
10
2271
20
840
30
0
11
2271
21
920
31
0
0
TEXT
100
AcDbEntity
8
LABEL
100
AcDbText
10
1125
20
850
30
0
40
18
1
P07-U01-M09 2256.00 90.0/90.0
7
STANDARD
0
LINE
100
AcDbEntity
8
MARK
100
AcDbLine
10
4531
20
840
30
0
11
4531
21
920
31
0
0
TEXT
100
AcDbEntity
8
LABEL
100
AcDbText
10
3385
20
850
30
0
40
18
1
P07-U01-M10 2256.00 90.0/90.0
7
STANDARD
0
LWPOLYLINE
100
AcDbEntity
8
OUTLINE
100
AcDbPolyline
90
4
70
1
10
0
20
960
10
6000
20
960
10
6000
20
1040
10
0
20
1040
0
TEXT
100
AcDbEntity
8
LABEL
100
AcDbText
10
0
20
938
30
0
40
18
1
COMPRA-DEMO_CORREDERA_60-HOJA-CORREDERA stock 6000.00
7
STANDARD
0
LINE
100
AcDbEntity
8
MARK
100
AcDbLine
10
15
20
960
30
0
11
15
21
1040
31
0
0
LINE
100
AcDbEntity
8
MARK
100
AcDbLine
10
2271
20
960
30
0
11
2271
21
1040
31
0
0
TEXT
100
AcDbEntity
8
LABEL
100
AcDbText
10
1125
20
970
30
0
40
18
1
P07-U01-M18 2256.00 90.0/90.0
7
STANDARD
0
LINE
100
AcDbEntity
8
MARK
100
AcDbLine
10
4531
20
960
30
0
11
4531
21
1040
31
0
0
TEXT
100
AcDbEntity
8
LABEL
100
AcDbText
10
3385
20
970
30
0
40
18
1
P07-U01-M19 2256.00 90.0/90.0
7
STANDARD
0
LWPOLYLINE
100
AcDbEntity
8
OUTLINE
100
AcDbPolyline
90
4
70
1
10
0
20
1080
10
6000
20
1080
10
6000
20
1160
10
0
20
1160
0
TEXT
100
AcDbEntity
8
LABEL
100
AcDbText
10
0
20
1058
30
0
40
18
1
COMPRA-DEMO_CORREDERA_60-HOJA-CORREDERA stock 6000.00
7
STANDARD
0
LINE
100
AcDbEntity
8
MARK
100
AcDbLine
10
15
20
1080
30
0
11
15
21
1160
31
0
0
LINE
100
AcDbEntity
8
MARK
100
AcDbLine
10
1481
20
1080
30
0
11
1481
21
1160
31
0
0
TEXT
100
AcDbEntity
8
LABEL
100
AcDbText
10
730
20
1090
30
0
40
18
1
P07-U01-M07 1466.00 90.0/90.0
7
STANDARD
0
LINE
100
AcDbEntity
8
MARK
100
AcDbLine
10
2951
20
1080
30
0
11
2951
21
1160
31
0
0
TEXT
100
AcDbEntity
8
LABEL
100
AcDbText
10
2200
20
1090
30
0
40
18
1
P07-U01-M11 1466.00 90.0/90.0
7
STANDARD
0
LINE
100
AcDbEntity
8
MARK
100
AcDbLine
10
4421
20
1080
30
0
11
4421
21
1160
31
0
0
TEXT
100
AcDbEntity
8
LABEL
100
AcDbText
10
3670
20
1090
30
0
40
18
1
P07-U01-M16 1466.00 90.0/90.0
7
STANDARD
0
LINE
100
AcDbEntity
8
MARK
100
AcDbLine
10
5891
20
1080
30
0
11
5891
21
1160
31
0
0
TEXT
100
AcDbEntity
8
LABEL
100
AcDbText
10
5140
20
1090
30
0
40
18
1
P07-U01-M20 1466.00 90.0/90.0
7
STANDARD
0
LWPOLYLINE
100
AcDbEntity
8
OUTLINE
100
AcDbPolyline
90
4
70
1
10
0
20
1200
10
6000
20
1200
10
6000
20
1280
10
0
20
1280
0
TEXT
100
AcDbEntity
8
LABEL
100
AcDbText
10
0
20
1178
30
0
40
18
1
COMPRA-DEMO_CORREDERA_60-JQ-10 stock 6000.00
7
STANDARD
0
LINE
100
AcDbEntity
8
MARK
100
AcDbLine
10
15
20
1200
30
0
11
15
21
1280
31
0
0
LINE
100
AcDbEntity
8
MARK
100
AcDbLine
10
2144
20
1200
30
0
11
2144
21
1280
31
0
0
TEXT
100
AcDbEntity
8
LABEL
100
AcDbText
10
1061.500
20
1210
30
0
40
18
1
P07-U01-M13 2129.00 90.0/90.0
7
STANDARD
0
LINE
100
AcDbEntity
8
MARK
100
AcDbLine
10
4277
20
1200
30
0
11
4277
21
1280
31
0
0
TEXT
100
AcDbEntity
8
LABEL
100
AcDbText
10
3194.500
20
1210
30
0
40
18
1
P07-U01-M14 2129.00 90.0/90.0
7
STANDARD
0
LINE
100
AcDbEntity
8
MARK
100
AcDbLine
10
5620
20
1200
30
0
11
5620
21
1280
31
0
0
TEXT
100
AcDbEntity
8
LABEL
100
AcDbText
10
4932.500
20
1210
30
0
40
18
1
P07-U01-M12 1339.00 90.0/90.0
7
STANDARD
0
LWPOLYLINE
100
AcDbEntity
8
OUTLINE
100
AcDbPolyline
90
4
70
1
10
0
20
1320
10
6000
20
1320
10
6000
20
1400
10
0
20
1400
0
TEXT
100
AcDbEntity
8
LABEL
100
AcDbText
10
0
20
1298
30
0
40
18
1
COMPRA-DEMO_CORREDERA_60-JQ-10 stock 6000.00
7
STANDARD
0
LINE
100
AcDbEntity
8
MARK
100
AcDbLine
10
15
20
1320
30
0
11
15
21
1400
31
0
0
LINE
100
AcDbEntity
8
MARK
100
AcDbLine
10
2144
20
1320
30
0
11
2144
21
1400
31
0
0
TEXT
100
AcDbEntity
8
LABEL
100
AcDbText
10
1061.500
20
1330
30
0
40
18
1
P07-U01-M22 2129.00 90.0/90.0
7
STANDARD
0
LINE
100
AcDbEntity
8
MARK
100
AcDbLine
10
4277
20
1320
30
0
11
4277
21
1400
31
0
0
TEXT
100
AcDbEntity
8
LABEL
100
AcDbText
10
3194.500
20
1330
30
0
40
18
1
P07-U01-M23 2129.00 90.0/90.0
7
STANDARD
0
LINE
100
AcDbEntity
8
MARK
100
AcDbLine
10
5620
20
1320
30
0
11
5620
21
1400
31
0
0
TEXT
100
AcDbEntity
8
LABEL
100
AcDbText
10
4932.500
20
1330
30
0
40
18
1
P07-U01-M15 1339.00 90.0/90.0
7
STANDARD
0
LWPOLYLINE
100
AcDbEntity
8
OUTLINE
100
AcDbPolyline
90
4
70
1
10
0
20
1440
10
6000
20
1440
10
6000
20
1520
10
0
20
1520
0
TEXT
100
AcDbEntity
8
LABEL
100
AcDbText
10
0
20
1418
30
0
40
18
1
COMPRA-DEMO_CORREDERA_60-JQ-10 stock 6000.00
7
STANDARD
0
LINE
100
AcDbEntity
8
MARK
100
AcDbLine
10
15
20
1440
30
0
11
15
21
1520
31
0
0
LINE
100
AcDbEntity
8
MARK
100
AcDbLine
10
1354
20
1440
30
0
11
1354
21
1520
31
0
0
TEXT
100
AcDbEntity
8
LABEL
100
AcDbText
10
666.500
20
1450
30
0
40
18
1
P07-U01-M21 1339.00 90.0/90.0
7
STANDARD
0
LINE
100
AcDbEntity
8
MARK
100
AcDbLine
10
2697
20
1440
30
0
11
2697
21
1520
31
0
0
TEXT
100
AcDbEntity
8
LABEL
100
AcDbText
10
2009.500
20
1450
30
0
40
18
1
P07-U01-M24 1339.00 90.0/90.0
7
STANDARD
0
LWPOLYLINE
100
AcDbEntity
8
OUTLINE
100
AcDbPolyline
90
4
70
1
10
0
20
1560
10
6000
20
1560
10
6000
20
1640
10
0
20
1640
0
TEXT
100
AcDbEntity
8
LABEL
100
AcDbText
10
0
20
1538
30
0
40
18
1
COMPRA-DEMO_CORREDERA_60-MARCO stock 6000.00
7
STANDARD
0
LINE
100
AcDbEntity
8
MARK
100
AcDbLine
10
15
20
1560
30
0
11
15
21
1640
31
0
0
LINE
100
AcDbEntity
8
MARK
100
AcDbLine
10
3021
20
1560
30
0
11
3021
21
1640
31
0
0
TEXT
100
AcDbEntity
8
LABEL
100
AcDbText
10
1500
20
1570
30
0
40
18
1
P07-U01-M01 3006.00 45.0/45.0
7
STANDARD
0
LINE
100
AcDbEntity
8
MARK
100
AcDbLine
10
5431
20
1560
30
0
11
5431
21
1640
31
0
0
TEXT
100
AcDbEntity
8
LABEL
100
AcDbText
10
4210
20
1570
30
0
40
18
1
P07-U01-M02 2406.00 45.0/45.0
7
STANDARD
0
LWPOLYLINE
100
AcDbEntity
8
OUTLINE
100
AcDbPolyline
90
4
70
1
10
0
20
1680
10
6000
20
1680
10
6000
20
1760
10
0
20
1760
0
TEXT
100
AcDbEntity
8
LABEL
100
AcDbText
10
0
20
1658
30
0
40
18
1
COMPRA-DEMO_CORREDERA_60-MARCO stock 6000.00
7
STANDARD
0
LINE
100
AcDbEntity
8
MARK
100
AcDbLine
10
15
20
1680
30
0
11
15
21
1760
31
0
0
LINE
100
AcDbEntity
8
MARK
100
AcDbLine
10
3021
20
1680
30
0
11
3021
21
1760
31
0
0
TEXT
100
AcDbEntity
8
LABEL
100
AcDbText
10
1500
20
1690
30
0
40
18
1
P07-U01-M04 3006.00 45.0/45.0
7
STANDARD
0
LINE
100
AcDbEntity
8
MARK
100
AcDbLine
10
5431
20
1680
30
0
11
5431
21
1760
31
0
0
TEXT
100
AcDbEntity
8
LABEL
100
AcDbText
10
4210
20
1690
30
0
40
18
1
P07-U01-M03 2406.00 45.0/45.0
7
STANDARD
0
LWPOLYLINE
100
AcDbEntity
8
OUTLINE
100
AcDbPolyline
90
4
70
1
10
0
20
1800
10
6000
20
1800
10
6000
20
1880
10
0
20
1880
0
TEXT
100
AcDbEntity
8
LABEL
100
AcDbText
10
0
20
1778
30
0
40
18
1
COMPRA-DEMO_CORREDERA_60-RIEL stock 6000.00
7
STANDARD
0
LINE
100
AcDbEntity
8
MARK
100
AcDbLine
10
15
20
1800
30
0
11
15
21
1880
31
0
0
LINE
100
AcDbEntity
8
MARK
100
AcDbLine
10
2895
20
1800
30
0
11
2895
21
1880
31
0
0
TEXT
100
AcDbEntity
8
LABEL
100
AcDbText
10
1437
20
1810
30
0
40
18
1
P07-U01-M05 2880.00 90.0/90.0
7
STANDARD
0
LINE
100
AcDbEntity
8
MARK
100
AcDbLine
10
5779
20
1800
30
0
11
5779
21
1880
31
0
0
TEXT
100
AcDbEntity
8
LABEL
100
AcDbText
10
4321
20
1810
30
0
40
18
1
P07-U01-M06 2880.00 90.0/90.0
7
STANDARD
0
ENDSEC
0
EOF
